<?xml version="1.0" standalone="no"?>
<!DOCTYPE svg PUBLIC "-//W3C//DTD SVG 1.1//EN" "http://www.w3.org/Graphics/SVG/1.1/DTD/svg11.dtd" >
<!--
2013-9-30: Created.
-->
<svg>
<metadata>
Created by iconfont
</metadata>
<defs>

<font id="iconfont" horiz-adv-x="1024" >
  <font-face
    font-family="iconfont"
    font-weight="500"
    font-stretch="normal"
    units-per-em="1024"
    ascent="896"
    descent="-128"
  />
    <missing-glyph />
    
    <glyph glyph-name="nvren" unicode="&#983112;" d="M811.008 125.952q-9.216-1.024-19.456-3.584t-18.432-5.632q-10.24-4.096-19.456-9.216-2.048 11.264 1.024 22.528 2.048 10.24 8.192 21.504t20.48 22.528q25.6 17.408 60.928 21.504t66.048-8.192 48.128-42.496 6.144-82.432q-9.216-41.984-37.888-76.288t-76.288-52.736-112.128-17.408-144.384 28.672q-55.296 19.456-87.04 48.64t-47.616 59.904-18.944 57.856-1.024 42.496 12.8 37.888 22.016 43.008q13.312 24.576 29.696 50.176 8.192 13.312 14.336 25.6 5.12 11.264 8.192 22.528t0 21.504q-10.24 26.624-25.6 40.96t-29.696 21.504q-17.408 7.168-35.84 8.192-25.6 1.024-47.104 6.144-18.432 5.12-36.352 13.312t-26.112 25.6q-9.216 17.408-7.68 35.84t7.168 36.352 11.776 34.304 6.144 28.672q0 32.768-34.816 46.08-45.056 11.264-67.584 9.216t-31.744-8.704-9.216-12.288 0-1.536q0-14.336 3.584-36.864t-3.584-43.008q-5.12-12.288-13.824-23.04t-14.848-19.968q-8.192-13.312-13.824-23.04t-4.608-12.8q2.048-4.096 9.728-5.632t11.776-3.584q5.12-3.072 6.656-9.728t7.68-11.776q10.24-10.24 12.288-17.408 1.024-4.096 0-7.168 0-8.192 1.024-19.456 1.024-9.216 2.56-20.992t4.608-23.04q6.144-26.624 14.336-37.376t19.968-13.312 28.16-0.512 39.936 2.048q17.408-1.024 35.84-1.024t32.768-8.192 22.528-22.528 13.312-28.672q4.096-17.408 6.144-35.84 3.072-23.552 3.072-47.104 0-20.48-2.048-44.544t-10.24-47.616q-17.408-48.128-51.2-71.68t-72.704-30.72q-40.96-8.192-77.824-2.048t-66.56 20.48-48.64 34.816-23.04 40.96q-3.072 16.384-0.512 32.256t7.68 30.72 12.288 28.16 12.288 25.6q9.216 19.456 11.264 34.304t0 25.088q-2.048 11.264-8.192 20.48-9.216 10.24-19.456 21.504-8.192 10.24-17.408 22.016t-15.36 26.112q-20.48 41.984-21.504 77.824 0 15.36 0.512 37.376t7.68 41.472q6.144 16.384 30.208 43.52t53.76 70.144q6.144 12.288 10.752 25.6t7.168 24.576 3.584 19.456 1.024 11.264q0 10.24-1.024 22.528t-2.048 25.6q0 6.144-1.024 20.48t2.56 31.744 12.8 35.328 28.672 32.256q15.36 11.264 36.352 15.872t39.424 5.632q21.504 1.024 45.056-1.024 19.456 7.168 40.96 11.264 18.432 4.096 43.008 7.168t51.2 3.072q89.088-2.048 149.504-27.136t99.328-61.44 59.392-78.848 29.696-78.848 10.752-61.44 1.536-26.112q1.024-17.408 12.288-31.744t26.112-29.184 30.72-30.208 27.136-33.792q21.504-38.912 23.552-69.632t-8.192-54.272-28.672-40.448-37.376-28.16-34.816-17.408-19.968-8.192q-33.792-15.36-51.712-33.792t-24.064-36.864-2.56-35.84 14.848-29.696q7.168-9.216 18.432-15.36t23.04-9.216 22.528-3.584 17.92 1.536q16.384 3.072 27.136 14.848t12.8 25.088-5.632 22.528-27.136 8.192z"  horiz-adv-x="1024" />

    
    <glyph glyph-name="meijinyingbiliangge" unicode="&#13362;" d="M585.375 678.625c-27.8906 0-55.5313-3.0313-82.1563-8.9531l0.4375-2.0156c-28.5938 6.875-58.2969 10.9844-88.9688 10.9844-208.7969 0-378.6563-169.875-378.6563-378.6563 0-208.7344 169.875-378.5938 378.6563-378.5938 29.2188 0 57.5469 3.6563 84.875 9.9063 27.9531-6.5 56.7969-9.9063 85.8125-9.9063 208.7344 0 378.5938 169.8594 378.5938 378.5938C963.9688 508.7656 794.1094 678.625 585.375 678.625zM431.0938 123.5469l-0.0625-59.9531h-36.28125v57.625c-33.4531 0.625-67.4531 11.0313-87.6406 25.4219l13.8125 38.5625c20.125-13.2656 50.2188-24.7344 82.4688-24.7344 40.9531 0 64.9219 23.5938 64.9219 56.5313 0 31.6719-18.8125 51.2969-61.4531 68.5938-58.75 23.0938-95.1563 50.1563-95.0938 100.3281 0 47.8438 33.9375 84.1094 86.4375 92.8281V536.40625h36.34375l-0.0625-56.0313c34.0781-1.0781 57.6719-10.3594 74.9531-20.1406l-14.375-38.0469c-12.1094 6.875-35.7813 20.1875-72.6875 20.1875-44.3594 0-57.3594-26.5625-57.3594-50.1563 0-29.4063 17.6094-44.3594 67.7656-65.6875 59.375-24.2969 89.3438-53.7031 89.3438-105C522.1406 175.4687 490.4688 132.75 431.0938 123.5469zM585.375-42.1563c-2.9063 0-5.7344 0.375-8.5781 0.5 127.7813 60.8906 216.4844 190.8906 216.4844 341.625 0 150.8125-88.7813 280.8594-216.5469 341.6875 2.9063 0.0625 5.7344 0.5156 8.6406 0.5156 188.6719 0 342.125-153.5313 342.125-342.1875C927.5 111.2969 774.0469-42.1563 585.375-42.1563z"  horiz-adv-x="1000" />

    
    <glyph glyph-name="fukuanma" unicode="&#58937;" d="M228.888526 534.635789l23.966854 0c6.611581 0 11.982916 5.372358 11.982916 11.983939L264.838296 810.25615c0 6.611581-5.371334 11.983939-11.982916 11.983939l-23.966854 0c-6.611581 0-11.982916-5.372358-11.982916-11.983939L216.90561 546.619728C216.90561 540.008146 222.276944 534.635789 228.888526 534.635789zM360.70776 534.635789l71.900563 0c6.612605 0 11.983939 5.372358 11.983939 11.983939L444.592262 810.25615c0 6.611581-5.371334 11.983939-11.983939 11.983939l-71.900563 0c-6.611581 0-11.983939-5.372358-11.983939-11.983939L348.723821 546.619728C348.723821 540.008146 354.095155 534.635789 360.70776 534.635789zM768.145309 534.635789l23.967878 0c6.610558 0 11.981892 5.372358 11.981892 11.983939L804.09508 810.25615c0 6.611581-5.371334 11.983939-11.981892 11.983939l-23.967878 0c-6.611581 0-11.982916-5.372358-11.982916-11.983939L756.162394 546.619728C756.162394 540.008146 761.533728 534.635789 768.145309 534.635789zM672.277892 390.834662l0-215.702714c0-19.848047 16.114003-35.950793 35.950793-35.950793s35.950793 16.101723 35.950793 35.950793l0 215.702714c0 19.848047-16.114003 35.950793-35.950793 35.950793S672.277892 410.682709 672.277892 390.834662zM875.996666 534.635789l59.918671 0c6.611581 0 11.982916 5.372358 11.982916 11.983939L947.898253 810.25615c0 6.611581-5.371334 11.983939-11.982916 11.983939l-59.918671 0c-6.610558 0-11.982916-5.372358-11.982916-11.983939L864.013751 546.619728C864.013751 540.008146 869.386108 534.635789 875.996666 534.635789zM696.244746 546.619728 696.244746 810.25615c0 6.611581-5.372358 11.983939-11.982916 11.983939L612.360244 822.240089c-6.611581 0-11.982916-5.372358-11.982916-11.983939L600.377328 546.619728c0-6.611581 5.371334-11.983939 11.982916-11.983939l71.901587 0C690.872389 534.635789 696.244746 540.008146 696.244746 546.619728zM519.149329 426.785455 82.430896 426.785455c-11.773138 0-21.310352-9.537214-21.310352-21.310352l0-436.718433c0-11.772115 9.537214-21.310352 21.310352-21.310352l436.718433 0c11.772115 0 21.309328 9.538237 21.309328 21.310352L540.458657 405.475104C540.458657 417.248242 530.921443 426.785455 519.149329 426.785455zM468.558094 19.346883 133.021108 19.346883 133.021108 354.884892l335.536986 0L468.558094 19.346883zM923.931399 235.048573c-19.848047 0-35.950793-16.101723-35.950793-35.950793l0-179.750897L708.228685 19.346883c-19.836791 0-35.950793-16.102746-35.950793-35.950793s16.114003-35.950793 35.950793-35.950793l215.702714 0c19.848047 0 35.950793 16.102746 35.950793 35.950793L959.882192 199.09778C959.882192 218.94685 943.778422 235.048573 923.931399 235.048573zM85.087399 534.635789l59.916625 0c6.612605 0 11.983939 5.372358 11.983939 11.983939L156.987962 810.25615c0 6.611581-5.371334 11.983939-11.983939 11.983939L85.087399 822.240089c-6.611581 0-11.983939-5.372358-11.983939-11.983939L73.10346 546.619728C73.10346 540.008146 78.474794 534.635789 85.087399 534.635789zM923.931399 426.785455c-19.848047 0-35.950793-16.102746-35.950793-35.950793l0-47.933709c0-19.848047 16.102746-35.950793 35.950793-35.950793s35.950793 16.102746 35.950793 35.950793l0 47.933709C959.882192 410.682709 943.778422 426.785455 923.931399 426.785455zM252.856403 115.214301l95.867418 0c13.236466 0 23.966854 10.743692 23.966854 23.967878l0 95.867418c0 13.224186-10.731412 23.967878-23.966854 23.967878l-95.867418 0c-13.236466 0-23.966854-10.743692-23.966854-23.967878l0-95.867418C228.888526 125.957992 239.619938 115.214301 252.856403 115.214301zM522.484284 534.635789c9.923 0 17.974373 5.372358 17.974373 11.983939L540.458657 810.25615c0 6.611581-8.051373 11.983939-17.974373 11.983939s-17.974373-5.372358-17.974373-11.983939L504.50991 546.619728C504.50991 540.008146 512.561283 534.635789 522.484284 534.635789z"  horiz-adv-x="1024" />

    
    <glyph glyph-name="chongzhi" unicode="&#58904;" d="M773.12 1.706667l-498.346667 0 0 785.066667 498.346667 0L773.12 1.706667zM820.906667 827.733333c0 37.546667-30.72 68.266667-68.266667 68.266667l-457.386667 0c-37.546667 0-68.266667-30.72-68.266667-68.266667l0-884.053333c0-37.546667 30.72-68.266667 68.266667-68.266667l457.386667 0c37.546667 0 68.266667 30.72 68.266667 68.266667L820.906667 827.733333zM448.853333 844.8l146.773333 0c3.413333 0 6.826667-3.413333 6.826667-6.826667 0-3.413333-3.413333-6.826667-6.826667-6.826667l-146.773333 0c-3.413333 0-6.826667 3.413333-6.826667 6.826667C442.026667 841.386667 445.44 844.8 448.853333 844.8zM523.946667-93.866667c-20.48 0-34.133333 17.066667-34.133333 34.133333 0 20.48 17.066667 34.133333 34.133333 34.133333 20.48 0 34.133333-17.066667 34.133333-34.133333C558.08-76.8 541.013333-93.866667 523.946667-93.866667zM677.546667 592.213333l-30.72 30.72-105.813333-105.813333c-10.24-10.24-27.306667-10.24-37.546667 0l-105.813333 105.813333-30.72-30.72 105.813333-105.813333L380.586667 486.4l0-40.96 119.466667 0L500.053333 384 380.586667 384l0-40.96 119.466667 0L500.053333 145.066667l40.96 0 0 197.973333 119.466667 0L660.48 384l-119.466667 0 0 61.44 119.466667 0L660.48 486.4l-92.16 0L677.546667 592.213333z"  horiz-adv-x="1024" />

    
    <glyph glyph-name="taxi" unicode="&#59115;" d="M868.499925 463.062684C852.161818 584.318328 785.318434 672.668539 702.925912 672.668539l-63.934125 0c8.893554 4.812609 15.223726 13.94357 15.223726 24.809035 0 15.739473-12.741185 28.515451-28.515451 28.515451L427.46928 725.993025c-15.767102 0-28.516474-12.775978-28.516474-28.515451 0-10.865465 6.331195-19.996426 15.229866-24.809035l-95.963609 0c-82.412988 0-149.20009-88.350211-165.628248-209.580273-59.404971-30.03199-90.204441-92.374874-90.204441-164.609035 0-55.520501 18.248619-105.20304 53.584406-138.907677l0-114.613364 142.593626 0 0 69.635987 503.963976 0 0-69.635987 142.593626 0L905.122007 159.571554c35.334763 33.70566 53.584406 83.387175 53.584406 138.907677C958.70539 370.661204 927.903873 433.002041 868.499925 463.062684L868.499925 463.062684zM318.219063 629.830895l384.706849 0c54.182017 0 101.640911-64.25135 119.319549-151.234423-8.839319 1.685385-18.222013 2.570545-27.89021 3.052522 0 0.170892 0.061398 0.347924 0.061398 0.544399 0 50.477648-41.013089 91.51018-91.489714 91.51018-50.477648 0-91.483574-41.033555-91.483574-91.51018L238.599701 482.193393c-14.060227 0-27.290553-1.258667-39.755446-3.563152C216.496288 565.579545 263.981788 629.830895 318.219063 629.830895L318.219063 629.830895zM765.893013 482.248651 639.957789 482.248651c0 34.737152 28.204365 62.999846 62.968124 62.999846C737.662041 545.249521 765.893013 516.931568 765.893013 482.248651L765.893013 482.248651zM217.238185 238.706893c-32.907481 0-59.718103 26.749224-59.718103 59.772338 0 32.969902 26.748201 59.718103 59.718103 59.718103 32.996508 0 59.772338-26.749224 59.772338-59.718103C277.010523 265.373229 250.234693 238.706893 217.238185 238.706893L217.238185 238.706893zM684.016237 249.342114 337.072457 249.342114c-7.872295 0-14.263865 6.417153-14.263865 14.264888 0 7.839549 6.391571 14.256702 14.263865 14.256702l346.94378 0c7.873318 0 14.264888-6.417153 14.264888-14.256702C698.282149 255.759267 691.890578 249.342114 684.016237 249.342114L684.016237 249.342114zM684.016237 301.646364 337.072457 301.646364c-7.872295 0-14.263865 6.414083-14.263865 14.260795 0 7.838525 6.391571 14.256702 14.263865 14.256702l346.94378 0c7.873318 0 14.264888-6.417153 14.264888-14.256702C698.282149 308.060447 691.890578 301.646364 684.016237 301.646364L684.016237 301.646364zM803.853579 238.706893c-32.996508 0-59.772338 26.749224-59.772338 59.772338 0 32.969902 26.748201 59.718103 59.772338 59.718103 32.907481 0 59.71708-26.749224 59.71708-59.718103C863.570659 265.373229 836.76106 238.706893 803.853579 238.706893L803.853579 238.706893zM803.853579 238.706893"  horiz-adv-x="1024" />

    
    <glyph glyph-name="jiweijiubei" unicode="&#58993;" d="M613.453646 258.452609l341.194846 338.939479c5.739724 5.739724 8.583492 15.242146 5.478781 22.745027-3.104711 7.492648-9.28548 13.264095-17.400299 13.264095L451.92681 633.40121C440.959014 723.453179 358.318852 805.915285 257.928421 805.915285c-107.756189 0-195.419761-88.110757-195.419761-195.866946s87.663572-195.645912 195.419761-195.645912c47.63081 0 92.469018 16.903995 127.996163 47.849798l183.269024-187.743942c-0.245593-1.254573-4.807493-2.603291-4.807493-3.930519l0-268.556479-101.489462 0c-11.07729 0-20.058848-8.877181-20.058848-19.954471s8.981559-19.954471 20.058848-19.954471l270.791379 0c11.07729 0 20.058848 8.877181 20.058848 19.954471s-8.981559 19.954471-20.058848 19.954471L604.295056 2.021286 604.295056 255.102305C614.528118 256.01407 612.082416 257.081379 613.453646 258.452609zM603.792613 302.975639l-290.50742 290.51663 581.01484 0L603.792613 302.975639zM257.928421 454.299089c-85.636403 0-155.302065 69.666686-155.302065 155.307182s69.666686 156.191318 155.302065 156.191318c78.257342 0 143.079696-61.788252 153.758919-132.396379L264.857227 633.40121c-8.114818 0-15.426341-5.771447-18.531052-13.264095-3.104711-7.502881-1.390673-16.563234 4.349051-22.302959L357.567745 490.71958C329.680605 467.294055 294.829865 454.299089 257.928421 454.299089z"  horiz-adv-x="1024" />

    
    <glyph glyph-name="lvyou" unicode="&#58967;" d="M215.434096-123.510756l133.947711 0c-21.285792 32.864502-30.623461 60.500932-43.259246 105.936751L215.434096-123.510756zM767.287779 163.618731 539.848767-90.707652 563.002093-123.510756 728.883097-123.510756 1023.979022-123.510756ZM553.293987 258.852722 446.356442 130.317277c14.130835-76.121701 15.065114-113.842815 53.779857-176.209234l0.37453 0.433882 156.355047 183.931103L553.293987 258.852722zM474.618113-98.862379c-4.107551 7.344269-8.090259 14.813381-12.013615 22.344914-0.188288 0.496304-0.436952 0.871857-0.684592 1.369184-12.574387 24.6494-23.775496 50.417273-33.986045 76.746942-0.62217 1.680269-1.242294 3.362584-1.867534 5.039783-2.614547 6.971785-5.16565 13.882172-7.594979 20.853957-0.86981 2.550079-1.738597 5.040806-2.613524 7.529487-2.114151 6.163373-4.169973 12.325723-6.161327 18.488073-0.931209 2.988054-1.926886 6.036483-2.800789 9.024537-1.804089 5.727445-3.609201 11.326976-5.228071 17.056468-46.434565 156.601664-56.267515 244.493433-50.41932 269.761933 0.436952 1.619894 0.49835 3.735068 0.436952 5.976108 23.219841 2.551102 57.823963 2.489704 98.40931-3.735068 58.632375-8.900717 130.463354-49.9179 137.932466-35.354206 3.919263 7.469112-54.649668 72.015174-102.20373 92.308359 60.999282 9.461489 114.400516 4.232394 147.143245 3.485381 18.798135-0.436952 37.532825-2.428306 40.332591 0.310062 5.854335 5.665023-29.999245 27.13808-55.083549 35.231409-17.86488 5.78782-57.827033 21.411659-119.447463 7.217379-57.015551-13.132088-108.802008-43.2572-137.371694-62.179155 0.309038 0.808412 0.561795 1.429559 0.934279 2.240017 34.668591 91.807962 121.747855 122.05894 161.334455 142.352125 14.56574 7.404644 30.436196 13.193487 30.312376 17.053398-0.373507 8.090259-45.686529 14.192234-71.514777 11.641131-18.36323-1.805112-61.746296-3.176342-96.356558-42.887786-14.686491-16.866133-25.51921-36.72339-33.486672-56.329936-2.737344 37.407981-10.333346 82.038458-30.250978 116.955712-32.9259 57.638745-95.480608 57.141418-105.190761 56.5786-9.710153-0.559748-7.592932-23.464411 2.676969-53.340859 10.269901-29.937846 29.690206-55.521524 53.341882-97.724719 7.717775-13.629415 18.298761-31.68156 29.006637-49.9179-18.178011 21.036106-42.264593 43.321668-71.021543 56.888661-47.865147 22.594601-88.075964 6.599302-105.689111 0.934279-24.647353-7.906064-63.676252-31.494295-60.688197-39.024805 1.37123-3.548826 18.301831-2.615571 34.608216-3.610224 44.566008-2.800789 136.499837 4.109598 205.526957-66.288752 0.995677-0.934279 1.74576-1.682315 2.615571-2.555196-32.991392 12.07706-86.769202 28.011984-141.66651 28.322046-63.240323 0.375553-98.717326-23.587208-114.903983-33.048697-22.653953-13.382798-52.782134-42.202171-45.811372-46.435589 3.362584-2.053776 21.166065 3.984754 39.337937 8.527211 49.173956 12.137435 143.660934 45.623084 252.711606 20.48045-32.741705-6.725168-76.06235-25.022906-101.209076-73.760934-22.779819-44.378743-7.780197-149.134599 1.36816-151.188374 16.060791-3.546779 29.940916 77.368088 60.315714 127.72294 22.097274 36.722366 45.249577 64.110133 62.306045 79.922261-7.717775-152.622026 8.464789-215.238133 31.994692-316.819692l0-0.064468c8.837272-37.718043 18.546402-71.705112 28.568662-101.954043 0.185218-0.435928 0.312108-0.934279 0.434905-1.370207 1.86958-5.478781 3.672646-10.829649 5.477758-16.119119 0.248663-0.49835 0.37453-1.059122 0.621147-1.619894 1.868557-5.228071 12.824073-31.68156 12.824073-31.68156l91.000574 0c0 0-9.958816 13.754259-13.444197 19.857257C476.48667-102.037698 475.552391-100.48125 474.618113-98.862379zM375.649054 384.336668c2.615571 0.995677 66.724681 23.028483 111.914906-4.170996 2.428306-1.494027 3.236718-4.669346 1.74269-7.036253-0.995677-1.616824-2.675946-2.489704-4.481058-2.489704-0.86981 0-1.804089 0.25071-2.614547 0.74906-41.078581 24.709775-102.514815 3.485381-103.075587 3.299139-2.736321-0.935302-5.723352 0.432859-6.65763 3.109828C371.542526 380.475733 372.91171 383.401366 375.649054 384.336668zM275.996426 329.685977c-0.559748-0.312108-50.354851-36.600593-60.063981-85.273129-0.49835-2.366907-2.615571-4.109598-5.105275-4.109598-0.245593 0-0.621147 0-0.995677 0.124843-2.799766 0.49835-4.604878 3.234671-4.106528 5.975085 10.579963 52.720735 61.994959 90.065272 64.236 91.622744 2.240017 1.617847 5.476735 1.119497 7.219425-1.121544C278.800285 334.540542 278.301935 331.366246 275.996426 329.685977zM326.415746 423.237653l-0.249687 0c-2.803859 0-5.04183 2.176572-5.167696 4.91801-4.605901 94.982258-71.079872 170.919764-71.704089 171.728176-1.866511 2.117221-1.743714 5.353938 0.435928 7.220449 2.179642 1.868557 5.41329 1.681292 7.281847-0.497327 2.864234-3.173273 69.464071-79.423911 74.317613-177.952948C331.456552 425.788755 329.277934 423.422871 326.415746 423.237653z"  horiz-adv-x="1024" />

    
    <glyph glyph-name="zan" unicode="&#58941;" d="M931.192779 511.933741c-15.524578 23.439852-38.096666 40.390919-65.275679 49.018414l-0.708128 0.215918c-24.384363 7.097652-58.893318 7.690146-116.065436 8.67252-12.96222 0.222057-26.993794 0.463558-42.247196 0.802272 2.677992 16.565281 5.79089 36.646642 5.79089 55.026244 0 48.044226-17.932418 98.396008-49.199539 138.146337-31.003108 39.413662-70.698179 62.943564-106.185414 62.943564-26.440186 0-51.010791-11.701506-69.182662-32.949436-15.230889-17.807574-25.682939-42.166355-29.432333-68.591191-13.631462-96.121198-107.559715-150.006456-137.495514-164.881235 18.302855-0.165776 33.224706-0.291642 33.224706-0.291642s-6.40078-607.107101-55.907311-623.021559l26.701129 0c4.813632 0 18.334577-0.25992 37.048801-0.620124 47.114041-0.906649 134.811382-2.594081 218.391962-2.594081 88.570221 0 152.428621 1.895163 189.802834 5.632277 40.353057 4.034896 67.850317 14.779611 88.986707 57.758472 9.154497 18.61394 31.852452 74.083276 52.228525 150.786215 26.674523 100.411921 40.186258 200.333678 40.159652 297.002344C951.811376 468.093257 944.482457 491.868753 931.192779 511.933741zM852.328617 163.74869c-19.851117-74.726935-41.368176-126.000716-47.983851-139.452075-8.269337-16.814967-11.313673-20.892843-40.001039-23.762193-35.352159-3.5345-97.15576-5.327332-183.693696-5.327332-82.990133 0-170.302711 1.680269-217.211067 2.582825-2.629897 0.050142-5.140067 0.099261-7.53051 0.145309L355.908454 509.087926c17.374716 9.110495 42.363853 24.072255 68.001767 45.714158 53.970192 45.557592 87.015819 101.505835 95.565543 161.792896 3.332908 23.486924 16.590863 48.765657 37.82549 48.765657 13.366426 0 36.4604-12.215206 57.926294-39.504736 22.916942-29.133527 36.059264-65.649186 36.059264-100.18577 0-14.352893-2.992147-32.81743-5.395894-47.653323-4.524037-27.916816-7.015787-43.295062 4.582365-56.924477 6.15621-7.233752 15.123442-11.382235 24.605398-11.382235 1.282203 0 2.557242 0.073678 3.823072 0.222057 26.115797-0.740874 48.943712-1.1328 69.185732-1.479701 48.117904-0.826831 82.977853-1.425466 99.613742-6.135744 29.331026-9.495258 42.711777-36.354999 42.72815-57.361429C890.455983 354.911498 877.280916 257.67285 852.328617 163.74869zM354.417497 560.044482c0 0-14.921851 0.125867-33.224706 0.291642-35.529191 0.322341-83.800591 0.797156-60.425208 0.797156L153.742035 561.13328c-39.815821 0-72.097038-32.284287-72.097038-72.098062l0-480.257042c0-39.818891 32.280194-72.098062 72.097038-72.098062l142.773727 0c0.673335 0 1.336438 0.132006 1.9934 0.342808C348.016717-47.06262 354.417497 560.044482 354.417497 560.044482zM280.1357 45.98866c0-0.388856 0-34.921347 0-34.921347l-120.829949-1.12666c-11.386328 0-10.534937 472.629317 1.518586 476.769614 8.256034 2.834558 119.311363 0 119.311363 0L280.1357 45.98866z"  horiz-adv-x="1024" />

    
    <glyph glyph-name="huoche" unicode="&#58985;" d="M969.182704 408.133421l-237.075932 251.382073c-0.070332 0.073529-0.147058 0.137467-0.21739 0.210996-0.271737 0.281327-0.559458 0.543474-0.847179 0.808816-0.236571 0.220586-0.469945 0.44437-0.716106 0.648972-0.271737 0.230177-0.559458 0.441173-0.843983 0.658562-0.278131 0.210996-0.549867 0.428385-0.837588 0.626593-0.271737 0.188617-0.559458 0.354856-0.840786 0.530686-0.3101 0.191814-0.613805 0.390022-0.930299 0.565851-0.294115 0.163042-0.597821 0.300509-0.901526 0.450764-0.316493 0.156648-0.62979 0.31969-0.955874 0.460354-0.326084 0.140664-0.664956 0.258949-1.000631 0.383628-0.3101 0.115089-0.617002 0.239768-0.933496 0.342069-0.345266 0.111892-0.703319 0.198208-1.054978 0.290918-0.31969 0.083119-0.636184 0.17583-0.95907 0.246162-0.335675 0.073529-0.677743 0.121482-1.019813 0.179026-0.358053 0.057544-0.712909 0.121482-1.070962 0.163042-0.3101 0.035166-0.626593 0.05115-0.93989 0.073529a21.495976 21.495976 0 0 1-1.198838 0.060741c-0.099104 0-0.191814 0.015985-0.290918 0.015985H28.311773a21.380887 21.380887 0 0 1-21.380887-21.380888v-444.216065a21.380887 21.380887 0 0 1 16.863663-20.894958 21.272193 21.272193 0 0 1 11.774194-3.542169h858.144672c70.74107 0 128.28852 57.550648 128.288521 128.288521 0 42.541188-20.834217 80.293416-52.819232 103.646792z m-201.676626 24.638531h-140.507083v119.126197h143.563323c1.336305 0 2.637445 0.137467 3.906615 0.374037l112.700422-119.500234h-119.663277z m126.207337-213.815266H49.69266V623.464019h657.63172l27.164084-28.800899h-128.870357a21.380887 21.380887 0 0 1-21.380887-21.380887v-161.887971a21.380887 21.380887 0 0 1 21.380887-21.380887h288.095308a85.028029 85.028029 0 0 0 47.253423-14.283763l0.364447-0.386825a21.268996 21.268996 0 0 1 6.476926-4.667479c19.171827-15.696794 31.43195-39.536099 31.43195-66.188679 0-47.16391-38.36923-85.529943-85.526746-85.529943zM278.782729 594.659923h-161.891168a21.380887 21.380887 0 0 1-21.380887-21.380887v-161.887971a21.380887 21.380887 0 0 1 21.380887-21.380887h161.887971a21.380887 21.380887 0 0 1 21.380888 21.380887v161.887971a21.374493 21.374493 0 0 1-21.377691 21.380887z m-21.384084-161.887971H138.272449v119.126197h119.126196v-119.126197zM523.144404 594.659923H361.253236a21.380887 21.380887 0 0 1-21.380887-21.380887v-161.887971a21.380887 21.380887 0 0 1 21.380887-21.380887h161.887971a21.380887 21.380887 0 0 1 21.380887 21.380887v161.887971a21.374493 21.374493 0 0 1-21.37769 21.380887z m-21.384084-161.887971h-119.126197v119.126197h119.126197v-119.126197zM878.438613 139.536024H21.384084a21.380887 21.380887 0 1 1 0-42.761774h857.054529a21.380887 21.380887 0 1 1 0 42.761774z"  horiz-adv-x="1024" />

    
    <glyph glyph-name="85" unicode="&#59052;" d="M484.864 35.84l-154.112 182.272-168.96 201.216 11.264 21.504 77.312 145.92 10.24 18.944h503.808l10.24-18.944 77.312-145.92 11.264-21.504-15.36-18.432-154.112-182.272-181.248-215.040-27.648 32.256zM695.296 146.944l-6.144-75.264-64.512-31.232 75.264-6.144 31.232-64.512 6.144 75.264 64.512 31.232-75.264 6.144-31.232 64.512zM249.344 787.456l-53.76-82.944-94.208 4.096 82.944-53.76-4.096-94.208 53.76 82.944 94.208-3.584-82.944 53.248 4.096 94.208zM323.584 534.016l83.968-88.576 78.336 88.576h-162.304zM545.28 534.016l70.144-88.576 83.456 88.064h-153.6v0.512zM724.992 526.848l-84.992-90.112h133.12l-48.128 90.112zM591.872 436.736l-75.776 95.232-83.456-95.232h159.232zM382.464 436.736l-83.456 88.576-51.712-96.768 218.624-259.072-91.136 188.928 21.504 10.24 116.224-240.64 116.224 240.64 21.504-10.24-91.136-188.416 79.872 94.72 125.44 148.48h-416.768v24.064h34.816z"  horiz-adv-x="1024" />

    
    <glyph glyph-name="dingdan" unicode="&#59269;" d="M327.68 487.04h369.28v-41.6H327.68v41.6zM327.68 302.72H553.6v-41.6H327.68v41.6zM778.24 35.17H245.76c-11.054 0-21.788 2.17-31.905 6.449a81.652 81.652 0 0 0-26.042 17.554 81.651 81.651 0 0 0-17.554 26.042c-4.279 10.116-6.448 20.85-6.448 31.905V671.36c0 11.054 2.17 21.789 6.448 31.905a81.647 81.647 0 0 0 17.554 26.042 81.65 81.65 0 0 0 26.042 17.554c10.117 4.28 20.851 6.449 31.905 6.449h80.672v-41.02H245.76c-22.57 0-40.93-18.36-40.93-40.93v-554.24c0-22.57 18.36-40.93 40.93-40.93h532.48c22.569 0 40.93 18.36 40.93 40.93V671.36c0 22.57-18.361 40.93-40.93 40.93h-80.427v41.02h80.427c11.054 0 21.788-2.17 31.905-6.449a81.65 81.65 0 0 0 26.042-17.554 81.662 81.662 0 0 0 17.554-26.042c4.279-10.116 6.448-20.85 6.448-31.905v-554.24c0-11.054-2.17-21.789-6.448-31.905a81.655 81.655 0 0 0-17.554-26.042 81.657 81.657 0 0 0-26.042-17.554c-10.117-4.279-20.851-6.449-31.905-6.449zM716.83 630.37H307.17V763.52c0 28.248 22.982 51.23 51.23 51.23h52.897C430.211 852.41 469.008 876.83 512 876.83c42.992 0 81.79-24.42 100.702-62.08H665.6c28.248 0 51.23-22.982 51.23-51.23v-133.15z m-368.64 41.02h327.62v92.13c0 5.63-4.58 10.21-10.21 10.21h-81.08l-4.77 13.819C569.787 816.416 542.56 835.81 512 835.81c-30.56 0-57.787-19.394-67.75-48.261l-4.77-13.818H358.4c-5.63 0-10.21-4.58-10.21-10.21v-92.131z"  horiz-adv-x="1024" />

    
    <glyph glyph-name="wode" unicode="&#58932;" d="M309.52 401.88c-1.94 0-3.47-0.28-4.67-0.76 1.63 0.49 3.37 0.76 5.16 0.76h-0.49z m535.61-213.4c0.05 0.99 0.18 1.96 0.39 2.9-0.23-0.43-0.35-1.35-0.39-2.9z m35.73 394.23c0.01 0.04 0.01 0.09 0.01 0.13v0.46c0-0.2 0-0.4-0.01-0.59z m-35.75 0.06c0-0.04 0-0.08 0.01-0.12-0.01 0.21-0.01 0.43-0.01 0.65v-0.53z m21.563-536.2a348 348 0 0 1-32.69 107.48c-3.26 6.62-6.71 13.13-10.37 19.51a0.21 0.21 0 0 1-0.04 0.06c-15.86 26.86-35.32 51.8-58 74.06l-0.01 0.01c-4.93 4.84-10.01 9.56-15.24 14.14-37.29 32.68-80.34 56.91-126.25 71.65 8.31 4.6 16.35 9.76 24.07 15.47 8.79 6.48 17.16 13.68 25.03 21.55 41.39 41.39 64.19 96.43 64.19 154.97 0 58.54-22.8 113.58-64.19 154.97-40.64 40.64-94.44 63.35-151.78 64.17-0.91 0.01-1.82 0.02-2.73 0.02-0.91 0-1.82-0.01-2.73-0.02-57.34-0.82-111.14-23.53-151.78-64.17-41.39-41.39-64.19-96.43-64.19-154.97 0-58.54 22.8-113.58 64.19-154.97 7.87-7.87 16.24-15.07 25.03-21.55 7.72-5.71 15.76-10.87 24.07-15.47-45.91-14.74-88.96-38.97-126.25-71.65-5.23-4.58-10.31-9.3-15.24-14.14-22.7-22.28-42.18-47.24-58.05-74.13-3.66-6.38-7.11-12.89-10.37-19.51a348 348 0 0 1-32.69-107.48c-1.61-12 6.81-23.03 18.8-24.64 0.99-0.13 1.98-0.2 2.95-0.2 0.89 0 1.76 0.05 2.63 0.16 8.67 1.89 15.67 8.96 17.03 18.25 10.1 69.32 43.14 132.31 90.63 180.28 56.36 56.95 133.07 92.74 215.97 92.88h0.47c82.72-0.28 159.25-36.04 215.5-92.88 47.49-47.97 80.53-110.96 90.63-180.28 1.36-9.27 8.33-16.33 16.98-18.24 0.02 0 0.03-0.01 0.05-0.01 0.87-0.11 1.74-0.16 2.63-0.16 0.97 0 1.96 0.07 2.95 0.2 11.99 1.61 20.41 12.64 18.8 24.64z m-348.48 303.57c-0.44 0-0.88 0-1.32 0.01-81.8 0.6-154.73 57.43-174.66 133.66-0.22 0.83-0.44 1.67-0.64 2.51-3.12 12.6-4.78 25.7-4.78 39.15s1.66 26.7 4.78 39.52c0.2 0.86 0.42 1.71 0.64 2.56 20.04 78.14 93.65 140.25 175.98 140.25h0.94c82.33 0 155.94-62.11 175.98-140.25 0.22-0.85 0.44-1.7 0.64-2.56 3.12-12.82 4.78-26.07 4.78-39.52 0-13.45-1.66-26.55-4.78-39.15-0.2-0.84-0.42-1.68-0.64-2.51-19.93-76.23-92.86-133.06-174.66-133.66-0.75-0.01-1.5-0.01-2.26-0.01z"  horiz-adv-x="1024" />

    
    <glyph glyph-name="waimai-" unicode="&#58887;" d="M992 181.2c0-100.2-77.7-181.5-173.6-181.5-85.4 0-156.3 64.5-170.7 149.4H376.4c-14.5-84.9-85.3-149.4-170.7-149.4-92.4 0-167.8 75.6-173.1 170.8H32v64c0 27.8 8.3 54.9 23.7 77.5l78.4 114.7h-28.2c-20.4 0-31.8 25-18.6 41.3 11.2 13.9 28 22.7 46.8 22.7h265.5c33.8 0 61.3-28.7 61.3-64L445.6 400l-11.9-20.8-9.4-16.4c-10.8-18.9 10.1-38 31.2-38h84.7c33.4 0 112.2 12.2 141.2 147.8l15 151.6c14.8 38.2-12.2 80-51.6 80h-30.6c-16.9 0-30.6 14.3-30.6 32s13.7 32 30.6 32h143c39.5 0 71.5-33.5 71.5-74.7 0-3.4-0.5-12.1-0.5-12.1-0.6-1.4-1-2.9-1.3-4.4-1.4-6.7-3.8-12.9-6.8-18.8-1.6-3-2.7-6.2-3.4-9.6l-36.2-218.8c-4.4-26.6 10-52.6 34.2-61.9l13.2-5.8C919.3 357 992 278 992 181.2z m-786.4 96c-50.8 0-91.9-43-91.9-96.1 0-53.1 41.1-96.1 91.9-96.1 50.8 0 91.9 43 91.9 96.1 0 53.1-41.1 96.1-91.9 96.1z m612.8 0c-50.8 0-91.9-43-91.9-96.1 0-53.1 41.2-96.1 91.9-96.1 50.8 0 91.9 43 91.9 96.1 0 53.1-41.1 96.1-91.9 96.1z m0-128.1c-16.9 0-30.6 14.4-30.6 32 0 17.7 13.7 32 30.6 32 16.9 0 30.6-14.4 30.6-32s-13.7-32-30.6-32z m-612.8 0c-16.9 0-30.6 14.4-30.6 32 0 17.7 13.7 32 30.6 32s30.6-14.4 30.6-32c0.1-17.6-13.7-32-30.6-32zM88.5 531.8V650.1c0 39.6 41.9 86 79.8 86h187.3c43.4 0 71.6-40.7 71.6-86v-118.3H88.5z"  horiz-adv-x="1024" />

    
    <glyph glyph-name="shu" unicode="&#59241;" d="M760.5 327.4l-37 46.9-162.5-128V474.2H449.9v-306.3L301.1 289.2l-37.8-46.3 186.6-152.2v-128H561V170.1zM301.1 289.2l-37.8-46.4 83.9-68.4c18.5 10.1 32.8 25.8 40.1 44.5l-86.2 70.3zM723.5 374.3l-88-69.3c6.3-19.2 19.9-35.5 37.9-46.3l87.2 68.7-37.1 46.9zM449.9 474.2v-187.8c18.2-2.5 36.8-3.8 55.5-3.8 18.8 0 37.3 1.3 55.5 3.8V474.2h-111zM207.2 580a298.3 250.7 0 1 1 596.6 0 298.3 250.7 0 1 1-596.6 0ZM648.4 350.9a93.6 84.8 0 1 1 187.2 0 93.6 84.8 0 1 1-187.2 0ZM188.6 266a93.6 84.8 0 1 1 187.2 0 93.6 84.8 0 1 1-187.2 0ZM648.1-25.9c0 10.3-8.4 18.7-18.7 18.7H381.5c-10.3 0-18.7-8.4-18.7-18.7v-18.7c0-10.3 8.4-18.7 18.7-18.7h247.9c10.3 0 18.7 8.4 18.7 18.7v18.7zM377.8 504.7c-16.7 16.7-71.2 33.3-73.9 30.5-2.8-2.8 13.8-57.2 30.5-73.9 16.7-16.7 40-20.5 52-8.5 11.9 11.9 8.1 35.2-8.6 51.9zM616.2 481.4c16.7 16.7 33.3 71.2 30.5 73.9-2.8 2.8-57.2-13.8-73.9-30.5-16.7-16.7-20.5-40-8.5-52 11.9-11.9 35.2-8.1 51.9 8.6zM471.1 675.3c0 23.6-26.8 73.9-30.7 73.9-3.9 0-30.7-50.2-30.7-73.9s13.7-42.8 30.7-42.8 30.7 19.2 30.7 42.8zM681.1 628.4c16.7 16.7 33.3 71.2 30.5 73.9-2.8 2.8-57.2-13.8-73.9-30.5-16.7-16.7-20.5-40-8.5-52 11.9-11.9 35.2-8.1 51.9 8.6z"  horiz-adv-x="1024" />

    
    <glyph glyph-name="chongzhi1" unicode="&#59083;" d="M925.4 243.8H753.1c-38 0-68.9 31.4-68.9 70.1 0 38.7 30.8 70.1 68.9 70.1h172.2c19 0 34.4-15.7 34.4-35.1v-70.1c0.1-19.3-15.3-35-34.3-35zM753.1 348.9c-19 0-34.4-15.7-34.4-35.1 0-19.4 15.4-35.1 34.4-35.1s34.4 15.7 34.4 35.1c0.1 19.4-15.3 35.1-34.4 35.1z m-103.3 0v-70.1c0-38.7 30.8-70.1 68.9-70.1h172.2v-140.2c0-38.7-30.8-70.1-68.9-70.1H133.1c-38 0-68.9 31.4-68.9 70.1v596c0 58.1 46.3 105.2 103.3 105.2h688.9c19 0 34.4-15.7 34.4-35.1 0-19.4-15.4-35.1-34.4-35.1H167.5c-19 0-34.5-15.7-34.5-35.1s15.4-35.1 34.5-35.1H822c38 0 68.9-31.4 68.9-70.1V419H718.7c-38.1 0.1-68.9-31.3-68.9-70.1z m0 0"  horiz-adv-x="1024" />

    
    <glyph glyph-name="huatong" unicode="&#58936;" d="M426.6 444h0.1-0.1zM200.2 229.4c-1 1-1.8 2.2-2.7 3.3l-75.3-87.6c-12.3-14.3-11.5-35.6 1.8-48.9l99.4-99.4c7-7 16.2-10.5 25.4-10.5 8.3 0 16.7 2.9 23.4 8.7l92.3 79.3-164.3 155.1zM717.2 589.7m-210.7 0a210.7 210.7 0 1 1 421.4 0 210.7 210.7 0 1 1-421.4 0ZM462.4 540.8L243.4 286c2.7-1.6 5.4-3.4 7.7-5.7l165-155.7c1.1-1.1 2-2.4 2.9-3.6l248.9 213.9c-103.9 20-185.7 101.9-205.5 205.9z"  horiz-adv-x="1024" />

    
    <glyph glyph-name="youla" unicode="&#58650;" d="M412.672 744.448l388.096-388.096-388.096-388.096-54.784 54.784 332.8 333.312-332.8 332.8c0 1.024 54.784 55.296 54.784 55.296z"  horiz-adv-x="1024" />

    
    <glyph glyph-name="libao" unicode="&#58894;" d="M921.6 384H537.6v204.8h384a51.2 51.2 0 0 0 51.2-51.2v-102.4a51.2 51.2 0 0 0-51.2-51.2z m-142.1568 220.8768a277.7856 277.7856 0 0 0-97.5104-16.0768 262.144 262.144 0 0 0-101.4016 30.72A151.04 151.04 0 0 0 512 674.1248a151.04 151.04 0 0 0-68.5312-54.528A262.144 262.144 0 0 0 342.0672 588.8a277.7856 277.7856 0 0 0-97.4848 16.0512 151.936 151.936 0 0 0-66.9952 45.6192A103.0144 103.0144 0 0 0 153.6 716.9792a101.6576 101.6576 0 0 0 23.9104 65.9968 154.6496 154.6496 0 0 0 67.2512 45.5936A274.304 274.304 0 0 0 342.0672 844.8a260.0192 260.0192 0 0 0 101.8112-30.976A149.1456 149.1456 0 0 0 512 759.4752a149.12 149.12 0 0 0 68.1216 54.3488A260.0192 260.0192 0 0 0 681.9328 844.8a274.2784 274.2784 0 0 0 97.28-16.3072 154.6496 154.6496 0 0 0 67.2-45.5936A101.6576 101.6576 0 0 0 870.4 716.9792a103.0144 103.0144 0 0 0-23.9104-66.56 151.9616 151.9616 0 0 0-67.0464-45.5424zM334.8224 780.8c-47.0016 0-91.6224-12.6208-91.6224-63.7952S289.28 652.8 334.8224 652.8C402.7392 652.8 460.8 716.8 460.8 716.8a171.7248 171.7248 0 0 1-125.9776 64z m354.3552 0A171.6992 171.6992 0 0 1 563.2 716.8s58.0608-64 125.9776-64c45.5424 0 91.6224 13.0304 91.6224 64.2048S736.1792 780.8 689.1776 780.8zM486.4 384H102.4a51.2 51.2 0 0 0-51.2 51.2v102.4a51.2 51.2 0 0 0 51.2 51.2h384v-204.8zM153.6 332.8h332.8v-409.6H153.6a51.2 51.2 0 0 0-51.2 51.2V281.6a51.2 51.2 0 0 0 51.2 51.2z m716.8 0a51.2 51.2 0 0 0 51.2-51.2v-307.2a51.2 51.2 0 0 0-51.2-51.2H537.6V332.8h332.8z"  horiz-adv-x="1024" />

    
    <glyph glyph-name="mao" unicode="&#58897;" d="M951.5 704.8c-5.1 26.7-12.5 43.5-22.4 51.5-19.4 15.5-52.9 7.5-105.3-25.2-34.7-21.6-71.5-50.3-98.7-72.5-64.2 35-137.9 53.4-214 53.4-75.6 0-149-18.2-212.9-52.8-27.1 22.2-63.9 50.7-98.5 72.2-52.1 32.4-85.4 40.3-104.7 24.9-10-8-17.3-24.8-22.4-51.5-4.6-24-7-54-6.8-86.6 0.2-45.6 5.9-136 41-228.1 0.2-0.5 0.4-0.9 0.6-1.4-1-10.4-1.6-20.9-1.6-31.2 0-48.1 10.8-94.8 32.2-138.7 20.5-42.3 49.9-80.2 87.3-112.7 76.4-66.5 177.9-103.2 285.8-103.2s209.3 36.6 285.8 103.2c37.4 32.5 66.7 70.4 87.3 112.7 21.4 43.9 32.2 90.6 32.2 138.7 0 9.2-0.4 18.5-1.3 27.9 0.9 1.5 1.6 3.1 2.3 4.8 35.1 92.2 40.8 182.5 41 228.1 0 32.5-2.3 62.5-6.9 86.5z m-23.3-87c-0.3-43.5-5.7-129.6-39-217 0-0.1-0.1-0.2-0.1-0.3-3.3-3.2-5-7.8-4.5-12.4 1.1-10.3 1.7-20.6 1.7-30.6 0-86.3-38.8-167.6-109.1-228.8-71-61.8-165.5-95.8-266.1-95.8-100.6 0-195.1 34-266.1 95.8-70.4 61.3-109.1 142.5-109.1 228.8 0 10.8 0.6 21.8 1.9 32.6 0.4 3.6-0.5 7.3-2.6 10.3-0.1 0.2-0.2 0.3-0.3 0.5-33.3 87.5-38.8 173.5-39 217-0.2 30.6 1.9 58.6 6.1 80.8 4.5 23.8 10.1 32.8 11.8 34.3 0 0 1.4 1 5.4 1 8 0 26.3-4 64.7-27.9 36.6-22.8 76.3-54.1 103.1-76.4 4.8-4 11.6-4.6 17-1.5 61.5 35.3 133 53.9 207 53.9 74.5 0 146.4-18.9 208.2-54.5 5.4-3.1 12.3-2.6 17.1 1.5 26.8 22.3 66.5 53.7 103.3 76.7 58.2 36.3 70.6 27.3 70.7 27.3 1.8-1.5 7.3-10.5 11.8-34.3 4.2-22.4 6.3-50.4 6.1-81zM434 398.3c0 52.7-42.9 95.5-95.5 95.5S243 450.9 243 398.3c0-52.7 42.9-95.5 95.5-95.5s95.5 42.8 95.5 95.5z m-95.5-75.6c-41.7 0-75.5 33.9-75.5 75.5s33.9 75.5 75.5 75.5 75.5-33.9 75.5-75.5-33.9-75.5-75.5-75.5zM338.5 440.3c-8.3 0-15-6.7-15-15v-53.9c0-8.3 6.7-15 15-15s15 6.7 15 15v53.9c0 8.2-6.7 15-15 15zM687.6 493.8c-52.7 0-95.5-42.9-95.5-95.5 0-52.7 42.9-95.5 95.5-95.5s95.5 42.9 95.5 95.5c0.1 52.7-42.8 95.5-95.5 95.5z m0-171.1c-41.7 0-75.5 33.9-75.5 75.5s33.9 75.5 75.5 75.5c41.7 0 75.5-33.9 75.5-75.5s-33.8-75.5-75.5-75.5zM687.6 440.3c-8.3 0-15-6.7-15-15v-53.9c0-8.3 6.7-15 15-15s15 6.7 15 15v53.9c0 8.2-6.7 15-15 15zM634.8 218.9c-5.1 2.1-11-0.3-13.1-5.4-8.1-19.5-26.8-32.1-47.7-32.1-26.3 0-48 19.9-51.2 45.7l33.1 18.5c3.9 2.2 6.8 6 7.8 10.4s0.1 9-2.5 12.7L550.4 284c-3 4.3-7.9 6.8-13.1 6.8h-50.1c-5.2 0-10.1-2.6-13.1-6.8l-10.8-15.4c-2.6-3.7-3.5-8.3-2.5-12.7 1-4.4 3.8-8.2 7.8-10.4l33.4-18.7c-3.3-25.6-25.1-45.5-51.4-45.5-20.9 0-39.6 12.5-47.8 31.9-2.1 5.1-8 7.5-13.1 5.3-5.1-2.1-7.5-8-5.3-13.1 11.3-26.8 37.3-44.2 66.2-44.2 26.3 0 49.3 14.3 61.8 35.5 12.5-21.2 35.5-35.5 61.7-35.5 29 0 55 17.5 66.2 44.5 2.1 5.2-0.3 11.1-5.5 13.2z m-145.5 51.9h45.9l7-10-30-16.8-30 16.8 7.1 10z"  horiz-adv-x="1024" />

    
    <glyph glyph-name="icon-test" unicode="&#58899;" d="M490.62 47c-52.23 0-101.72 9-139.36 25.49-44.26 19.31-68.57 47.51-68.57 79.4S307 212 351.26 231.29c37.64 16.44 87.13 25.49 139.36 25.49s101.72-9 139.36-25.49c44.22-19.31 68.57-47.51 68.57-79.4S674.2 91.8 630 72.49C592.34 56 542.85 47 490.62 47z m0 159.78c-44.83 0-88.33-7.77-119.34-21.31-28.48-12.47-38.59-25.87-38.59-33.58s10.11-21.15 38.59-33.58c31-13.55 74.51-21.31 119.34-21.31S579 104.76 610 118.31c28.48 12.43 38.58 25.86 38.58 33.58S638.45 173 610 185.47c-31 13.53-74.54 21.31-119.38 21.31zM799.37-58.73h-617.5a25 25 0 0 0-25 24L136.89 482a25 25 0 0 0 25 26H277.3a25 25 0 0 0 24.92-27c-0.19-2.34-0.28-4.52-0.28-6.66 0-31.58 18.44-61.9 51.92-85.35 36.2-25.35 84.77-39.31 136.76-39.31s100.56 14 136.76 39.31c33.48 23.45 51.93 53.77 51.93 85.35 0 2.14-0.1 4.32-0.29 6.66a25 25 0 0 0 24.92 27h115.43a25 25 0 0 0 25-26l-20-516.72a25 25 0 0 0-25-24.01z m-593.45 50h569.4L793.38 458h-65.07a138.68 138.68 0 0 0-19.39-54.88c-12.58-20.82-30.36-39.37-52.86-55.12-44.52-31.19-103.28-48.36-165.44-48.36S369.7 316.81 325.18 348c-22.5 15.75-40.28 34.3-52.85 55.12A138.37 138.37 0 0 0 252.94 458h-65.08zM537.17 307.84h-91.71a25 25 0 0 0-25 25v465a25 25 0 0 0 25 25h91.71a25 25 0 0 0 25-25v-465a25 25 0 0 0-25-25z m-66.71 50h41.71v415h-41.71zM445.16 348.49a25 25 0 0 0-25 25V685h-41.71v-311.51a25 25 0 0 0-50 0V710a25 25 0 0 0 25 25h91.71a25 25 0 0 0 25-25v-336.51a25 25 0 0 0-25-25zM629.32 348.49a25 25 0 0 0-25 25V685h-41.71v-311.51a25 25 0 0 0-50 0V710a25 25 0 0 0 25 25h91.71a25 25 0 0 0 25-25v-336.51a25 25 0 0 0-25-25zM631.15 348.49a25 25 0 0 0-25 25v269a25 25 0 0 0 25 25h91.71a25 25 0 0 0 25-25v-159a25 25 0 0 0-50 0v134h-41.71v-244a25 25 0 0 0-25-25zM354 458.49a25 25 0 0 0-25 25v134h-41.71v-126a25 25 0 1 0-50 0v151a25 25 0 0 0 25 25H354a25 25 0 0 0 25-25v-159a25 25 0 0 0-25-25z"  horiz-adv-x="1024" />

    
    <glyph glyph-name="lajifenleishidian" unicode="&#58934;" d="M386.62144 834.56v-92.06784H174.08v-156.5184h675.1232V742.49216H636.65152V834.56H386.62144z m51.32288-92.06784h147.38432v39.2704H437.94432v-39.2704zM596.81792 108.32896l18.18624-7.22944-18.51392-49.2544-103.08608 41.02144 39.87456 106.0352 47.872-19.0464-9.37984-24.9344c22.528 18.36032 36.79232 46.76608 36.79232 78.20288 0 38.36928-20.82816 72.704-54.35392 89.6l22.58944 47.4112c51.2512-25.83552 83.0976-78.336 83.0976-137.0112 0-51.15904-24.7296-97.024-63.0784-124.79488zM414.72 233.48224c0-38.36928 20.82816-72.704 54.35392-89.6l-22.5792-47.4112c-51.26144 25.83552-83.10784 78.336-83.10784 137.0112 0 51.15904 24.7296 97.03424 63.0784 124.79488l-18.18624 7.23968 18.51392 49.24416 103.08608-41.0112-39.87456-106.04544-47.872 19.0464 9.37984 24.94464c-22.528-18.37056-36.79232-46.77632-36.79232-78.21312z m-206.848 299.68384L256.74752-66.56h509.77792l48.896 599.72608H207.86176z"  horiz-adv-x="1024" />

    
    <glyph glyph-name="hongbao" unicode="&#58885;" d="M756.708 602.975c-97.388-59.547-179.815-85.308-259.431-81.089-67.557 3.586-134.335 27.24-230.517 81.639-16.13 9.137-36.178 2.643-44.771-14.493-8.593-17.132-2.478-38.422 13.65-47.542 73.416-41.523 161.514-84.673 258.336-89.811 6.771-0.354 13.55-0.536 20.337-0.536 86.328 0 174.471 29.189 275.429 90.914 15.843 9.681 21.288 31.172 12.165 47.988-9.12 16.826-29.351 22.617-45.198 12.93zM810.661 832H213.337c-59.98 0-108.604-48.725-108.604-108.828v-678.346c0-60.1 48.624-108.826 108.604-108.826h597.325c59.982 0 108.606 48.725 108.606 108.826V723.172C919.267 783.275 870.644 832 810.661 832z m-32.88-829.049H246.213c-40.488 0-73.318 32.962-73.318 73.632V691.42c0 40.664 32.83 73.632 73.318 73.632H777.78c40.495 0 73.318-32.968 73.318-73.632l0.289-621.021c0.001-40.438-33.112-67.448-73.606-67.448z"  horiz-adv-x="1024" />

    
    <glyph glyph-name="tianchongxing-" unicode="&#58942;" d="M226.8 287.9m-40.9 0a40.9 40.9 0 1 1 81.8 0 40.9 40.9 0 1 1-81.8 0ZM766.1 288.3m-40.9 0a40.9 40.9 0 1 1 81.8 0 40.9 40.9 0 1 1-81.8 0ZM495.7 92.2c-22.6 0-41-18.3-41-41v-85.9c0-22.6 18.3-41 41-41 22.6 0 41 18.3 41 41v85.9c0 22.7-18.3 41-41 41zM382.2-65.3c0-22.6 18.3-41 41-41h146.6c22.6 0 41 18.3 41 41 0 22.6-18.3 41-41 41H423.2c-22.6-0.1-41-18.4-41-41zM697.9 648.9c0 1.5-0.1 3-0.2 4.5h0.2C695.6 763.1 606 851.3 495.8 851.3c-111.6 0-202.1-90.5-202.1-202.1v-312c0-1.1 0.1-2.3 0.1-3.4 3.9-108.2 92.8-194.7 202-194.7 109.1 0 198.1 86.5 202 194.7 0.1 1.1 0.1 2.2 0.1 3.4V648.9z m-82.5-307.7M725.3 291C706 182.1 610.9 99.5 496.5 99.5c-114.5 0-209.6 82.7-228.8 191.7L186 284c23.1-150.8 153.3-266.3 310.6-266.3 157.4 0 287.7 115.7 310.6 266.6l-81.9 6.7z"  horiz-adv-x="1024" />

    
    <glyph glyph-name="gengduo" unicode="&#58889;" d="M802.8 798H666.3c-68 0-123.2-55.1-123.2-123.2v-136.6c0-68 55.1-123.2 123.2-123.2h136.6c68 0 123.2 55.1 123.2 123.2V674.8C926 742.9 870.9 798 802.8 798z m0-445.1H666.3c-68 0-123.2-55.1-123.2-123.2v-136.6c0-68 55.1-123.2 123.2-123.2h136.6c68 0 123.2 55.1 123.2 123.2V229.7c-0.1 68-55.2 123.2-123.3 123.2z m-445.1 0H221.2c-68 0-123.2-55.1-123.2-123.2v-136.6c0-68 55.1-123.2 123.2-123.2h136.6c68 0 123.2 55.1 123.2 123.2V229.7c-0.1 68-55.3 123.2-123.3 123.2zM289.4 798C183.7 798 98 712.3 98 606.6s85.7-191.4 191.4-191.4 191.4 85.7 191.4 191.4C480.9 712.3 395.2 798 289.4 798z"  horiz-adv-x="1024" />

    
    <glyph glyph-name="jiahao" unicode="&#58882;" d="M832 426.666667H554.666667V704c0 25.6-17.066667 42.666667-42.666667 42.666667s-42.666667-17.066667-42.666667-42.666667V426.666667H192c-25.6 0-42.666667-17.066667-42.666667-42.666667s17.066667-42.666667 42.666667-42.666667H469.333333v-277.333333c0-25.6 17.066667-42.666667 42.666667-42.666667s42.666667 17.066667 42.666667 42.666667V341.333333h277.333333c25.6 0 42.666667 17.066667 42.666667 42.666667s-17.066667 42.666667-42.666667 42.666667z"  horiz-adv-x="1024" />

    
    <glyph glyph-name="fenzu" unicode="&#58908;" d="M360.544 384.672V46.4a52.8 52.8 0 0 0-105.6 0V384.736a382.688 382.688 0 0 0-47.2 10.112 80 80 0 0 0-58.4 77.024V512c0 1.312 0 2.624 0.096 3.936a32.448 32.448 0 0 0-0.096 2.464V736a32 32 0 0 0 32 32h6.4a32 32 0 0 0 32-32v-223.2a26.4 26.4 0 1 1 52.8 0V736a32 32 0 0 0 32 32h6.4a32 32 0 0 0 32-32v-223.2a26.4 26.4 0 1 1 52.8 0V736a32 32 0 0 0 32 32h6.4a32 32 0 0 0 32-32v-217.6c0-0.832-0.032-1.664-0.096-2.464l0.096-3.936v-40.192a80 80 0 0 0-58.4-77.024c-15.712-4.416-31.456-7.776-47.2-10.112z m451.2-27.04v-311.232a52.8 52.8 0 0 0-105.6 0v311.232c-61.536 28.992-105.6 107.2-105.6 199.168 0 116.64 70.912 211.2 158.4 211.2 87.456 0 158.4-94.56 158.4-211.2 0-91.968-44.096-170.176-105.6-199.168z"  horiz-adv-x="1056" />

    
    <glyph glyph-name="dahongbao" unicode="&#58888;" d="M651.9-53.8H400.3c-138.2 0-250.2 112-250.2 250.2V577.6c0 138.2 112 250.2 250.2 250.2h251.6C790 827.8 902 715.8 902 577.6v-381.3c0-138.1-112-250.1-250.1-250.1zM654.9-61.3H397.3c-140.4 0-254.6 114.2-254.6 254.6V580.6c0 140.4 114.2 254.6 254.6 254.6h257.6c140.4 0 254.6-114.2 254.6-254.6v-387.3c0-140.4-114.2-254.6-254.6-254.6zM397.3 820.3c-132.2 0-239.7-107.5-239.7-239.7v-387.3c0-132.2 107.5-239.7 239.7-239.7h257.6c132.2 0 239.7 107.5 239.7 239.7V580.6c0 132.2-107.5 239.7-239.7 239.7H397.3zM694-19.7H433.5C301.2-19.7 194 87.5 194 219.7V607.8c0 74.2 33.8 140.5 86.8 184.5-74-40.7-124.2-119.4-124.2-209.9v-388.1c0-132.2 107.2-239.4 239.4-239.4h260.5c58 0 111.2 20.6 152.7 55-34.1-18.9-73.4-29.6-115.2-29.6zM517.4 541.9c-148.5 0-283 41.4-359.8 110.6l10 11.1c73-65.9 207-106.8 349.8-106.8 153.6 0 292.5 45.6 362.3 118.9l10.8-10.3C817.9 589.2 675 541.9 517.4 541.9zM517.4 541.9c-143.5 0-273.9 38.6-351.8 103.7-3.7-14.7-4.7-27.4-3-33.9 72.1-65.1 204-108.7 354.8-108.7 160.2 0 299.2 49.3 367.7 121.3 1.4 8.9 1.2 21-1.8 34-74.6-72.1-213.4-116.4-365.9-116.4zM502.4 514.9c-64.5 0-123.3 8-168 21.2-12.2-23.9-19.1-50.9-19.1-79.5 0-96.7 78.4-175.1 175.1-175.1s175.1 78.4 175.1 175.1c0 26.4-5.9 51.5-16.4 73.9-41.3-9.8-92-15.6-146.7-15.6zM518.8 470m-175.1 0a175.1 175.1 0 1 1 350.2 0 175.1 175.1 0 1 1-350.2 0ZM518.8 287.4c-100.7 0-182.6 81.9-182.6 182.6s81.9 182.6 182.6 182.6S701.5 570.7 701.5 470s-82-182.6-182.7-182.6z m0 350.3c-92.4 0-167.6-75.2-167.6-167.6s75.2-167.6 167.6-167.6S686.5 377.6 686.5 470s-75.2 167.7-167.7 167.7zM536.8 317.4c-92.6 0-167.6 75.1-167.6 167.6 0 47.6 19.9 90.5 51.7 121-42.2-30.4-69.7-80-69.7-136 0-92.6 75.1-167.6 167.6-167.6 45 0 85.8 17.8 115.9 46.6-27.5-19.9-61.3-31.6-97.9-31.6zM579.8 591.9c2.9-1.5 5.8-3.1 8.7-4.7M588.4 579.7c-1.3 0-2.6 0.3-3.8 1.1-2.7 1.6-5.4 3.1-8.2 4.5-3.7 1.9-5.2 6.3-3.3 10 1.9 3.7 6.3 5.2 10 3.3 3.1-1.6 6.2-3.2 9.1-5 3.6-2.1 4.7-6.7 2.6-10.3-1.4-2.3-3.8-3.6-6.4-3.6zM617.1 564.4c12.1-12.6 21.8-27.5 28.4-44M645.4 512.9c-3 0-5.8 1.8-7 4.7-6.2 15.5-15.2 29.5-26.8 41.6-2.9 3-2.8 7.7 0.2 10.6 3 2.9 7.7 2.8 10.6-0.2 13-13.5 23-29.1 29.9-46.4 1.5-3.8-0.3-8.2-4.2-9.7-0.8-0.4-1.7-0.6-2.7-0.6zM432.6 516.4h71.3c0.8 13.1 1.2 28.3 1.1 45.5h27.4c-0.4-17.9-0.8-33-1.4-45.5h74.5v-24.9H533c10.3-40.2 35.3-67.2 75-81-8.5-9.7-15.4-18-20.6-24.9-32.8 15.4-55.6 40.2-68.5 74.4-10-31.3-33.1-56.6-69.2-75.7-4.8 6.1-11.6 13.8-20.4 23.1 43.8 19.9 67.8 47.9 71.9 84.1h-68.7v24.9z"  horiz-adv-x="1024" />

    
    <glyph glyph-name="saoyisao" unicode="&#58925;" d="M128 472.576c16.896 0 30.72 13.824 30.72 30.72V708.608c0 16.384 13.824 30.208 30.208 30.208H435.2c16.896 0 30.72 13.824 30.72 30.72s-13.824 30.72-30.72 30.72H188.928c-50.688 0-91.648-40.96-91.648-91.648v-205.312c0-16.896 13.824-30.72 30.72-30.72zM434.688-6.144h-245.76c-16.896 0-30.208 15.36-30.208 33.792v201.728c0 16.896-13.824 30.72-30.72 30.72s-30.72-13.824-30.72-30.72v-201.728c0-52.736 40.96-95.232 91.648-95.232h245.76c16.896 0 30.72 13.824 30.72 30.72s-13.824 30.72-30.72 30.72zM903.68 261.632c-16.896 0-30.72-13.824-30.72-30.72v-202.24c0-17.92-13.312-33.28-29.184-33.28h-247.296c-16.896 0-30.72-13.824-30.72-30.72s13.824-30.72 30.72-30.72h247.296c50.176 0 90.624 42.496 90.624 94.72v202.24c0 16.896-13.824 30.72-30.72 30.72zM595.968 739.84h247.296c15.872 0 29.184-13.824 29.184-30.72v-204.8c0-16.896 13.824-30.72 30.72-30.72s30.72 13.824 30.72 30.72v204.8c0 50.688-40.448 92.16-90.624 92.16h-247.296c-16.896 0-30.72-13.824-30.72-30.72s13.824-30.72 30.72-30.72zM899.584 389.12h-768c-16.896 0-30.72-13.824-30.72-30.72s13.824-30.72 30.72-30.72h768c16.896 0 30.72 13.824 30.72 30.72s-13.824 30.72-30.72 30.72z"  horiz-adv-x="1024" />

    
    <glyph glyph-name="kefu" unicode="&#58884;" d="M939.670588 474.352941C921.6 697.223529 734.870588 865.882353 505.976471 865.882353 277.082353 865.882353 90.352941 697.223529 72.282353 474.352941 30.117647 462.305882 0 426.164706 0 377.976471v-126.494118c0-54.211765 48.188235-102.4 102.4-102.4s102.4 48.188235 102.4 102.4V377.976471c0 42.164706-30.117647 84.329412-72.282353 96.37647 18.070588 186.729412 180.705882 331.294118 373.458824 331.294118s355.388235-144.564706 373.458823-331.294118c-42.164706-12.047059-72.282353-48.188235-72.282353-96.37647v-126.494118c0-48.188235 30.117647-84.329412 72.282353-96.376471-48.188235-72.282353-84.329412-96.376471-126.494118-120.470588-12.047059 54.211765-66.258824 90.352941-120.470588 90.352941-72.282353 0-126.494118-54.211765-126.494117-126.494117 0-72.282353 54.211765-126.494118 126.494117-126.494118 60.235294 0 108.423529 42.164706 120.470588 96.376471 72.282353 36.141176 126.494118 66.258824 198.776471 192.752941v6.023529c30.117647 18.070588 54.211765 48.188235 54.211765 90.352941v120.470589c6.023529 48.188235-24.094118 84.329412-66.258824 96.37647zM144.564706 251.482353c0-24.094118-18.070588-42.164706-42.164706-42.164706s-42.164706 18.070588-42.164706 42.164706V377.976471c0 24.094118 18.070588 42.164706 42.164706 42.164705s42.164706-18.070588 42.164706-42.164705v-126.494118z m487.905882-319.247059c-36.141176 0-66.258824 30.117647-66.258823 66.258824 0 36.141176 30.117647 66.258824 66.258823 66.258823s66.258824-30.117647 66.258824-66.258823c0-36.141176-30.117647-66.258824-66.258824-66.258824z m240.941177 319.247059V377.976471c0 24.094118 18.070588 42.164706 42.164706 42.164705 24.094118 0 42.164706-18.070588 42.164705-42.164705v-126.494118c0-24.094118-18.070588-42.164706-42.164705-42.164706-24.094118 0-42.164706 18.070588-42.164706 42.164706z"  horiz-adv-x="1024" />

    
    <glyph glyph-name="qiaquan" unicode="&#58915;" d="M885.4 200.4l-0.1-115.7-747.5-0.2V200.4c85.2 17.3 149.5 92.8 149.5 182.9-0.1 88.7-62.6 165-149.5 182.9l0.1 115.8 747.5 0.3v-116c-87-17.9-149.4-94.3-149.5-182.9 0.1-88.8 62.5-165.2 149.5-183m37.4 294.9h37.4V682.2c-0.1 41.2-33.6 74.5-74.9 74.4H137.9c-41.2 0.1-74.8-33.2-74.9-74.4v-186.9h37.4c61.9 0 112.1-50.2 112.1-112 0-61.7-50.3-112-112.1-112H63v-186.9c0.1-41.2 33.6-74.5 74.8-74.4h747.4c41.2-0.1 74.7 33.2 74.9 74.4V271.3h-37.4c-61.8 0-112.1 50.2-112.1 112 0 61.7 50.4 112 112.2 112M623.7 368.3c14.4 0 26.2 11.7 26.2 26.1 0 14.4-11.7 26.1-26.2 26.1h-75.2c0.1 0.1 0.2 0.1 0.3 0.2l74.8 74.7c6.6 6.6 9.2 16.2 6.8 25.2-2.4 9-9.5 16.1-18.5 18.5-9 2.4-18.7-0.2-25.3-6.8l-74.8-74.7-0.2-0.3-0.2 0.3-74.8 74.7c-10.2 10.2-26.8 10.2-37 0s-10.2-26.8 0-37l74.8-74.7c0.1-0.1 0.2-0.1 0.3-0.2h-75.2c-14.5 0-26.2-11.7-26.2-26.1 0-14.4 11.7-26.1 26.2-26.1h86v-59.7h-86c-9.3 0-18-5-22.7-13.1-4.7-8.1-4.7-18 0-26.1 4.7-8.1 13.3-13.1 22.7-13.1h86V234c0-14.4 11.7-26.1 26.2-26.1 14.4 0 26.2 11.7 26.2 26.1v22.4h86c9.3 0 18 5 22.7 13.1 4.7 8.1 4.7 18 0 26.1-4.7 8.1-13.3 13.1-22.7 13.1h-86v59.7h85.8z m0 0"  horiz-adv-x="1024" />

    
    <glyph glyph-name="lingdang" unicode="&#58895;" d="M512-64c49.6 0 88 38.4 88 88H424c0-49.6 38.4-88 88-88z m288.8 286.4V451.2c0 137.6-97.6 252.8-224.8 283.2v28.8c0 32-17.6 60.8-48 67.2-44 10.4-80-23.2-80-66.4v-30.4C320.8 704 223.2 588.8 223.2 451.2v-228.8L136 132.8V88h752v44.8l-87.2 89.6z"  horiz-adv-x="1024" />

    
    <glyph glyph-name="hezuo" unicode="&#58890;" d="M635.3 487.9c-4.8 4.8-11.4 7.5-18.2 7.5-6.8 0-13.4-2.7-18.2-7.5L596 485c-67.3-67.3-155.6-46-215.7-3.5l-25 17.6c-6.2 4.4-10.2 11.3-10.8 18.8-0.6 7.6 2.1 15 7.5 20.4l98.2 98.2c4.8 4.8 7.5 11.4 7.5 18.2 0 6.8-2.7 13.4-7.5 18.2l-2 2c-38.6 38.4-91.6 58.8-146 56.2-55.2-2.6-104.9-27.5-140.1-69.9-62.8-75.9-55.7-191.6 16.1-263.5l41-41c6.7-6.7 6.7-17.5 0-24.1l-22.3-22.3c-7-7.1-10.8-16.7-10.4-26.7 0.4-10.1 5-19.2 12.7-25.8 13.9-11.7 35.7-10.1 49.5 3.7l20.8 20.8c4.3 4.3 10.6 6 16.5 4.4 5.9-1.6 10.5-6.2 12.1-12.1 1.6-5.9-0.1-12.2-4.4-16.5l-22.3-22.3c-7-7.1-10.8-16.7-10.4-26.7 0.4-10.1 5-19.2 12.7-25.8 13.9-11.7 35.7-10.1 49.5 3.7l20.8 20.8c4.3 4.3 10.6 6 16.5 4.4 5.9-1.6 10.5-6.2 12.1-12.1 1.6-5.9-0.1-12.2-4.4-16.5l-22.3-22.3c-7-7.1-10.8-16.7-10.4-26.7 0.4-10.1 5-19.2 12.7-25.8 13.9-11.7 35.7-10.1 49.5 3.7l20.8 20.8c4.3 4.3 10.6 6 16.5 4.4 5.9-1.6 10.5-6.2 12.1-12.1 1.6-5.9-0.1-12.2-4.4-16.5l-20.8-20.8c-13.8-13.8-15.4-35.5-3.7-49.5 6.5-7.8 15.7-12.3 25.8-12.8 10-0.5 19.7 3.3 26.7 10.4l33.8 33.8c0.2 0.2 0.4 0.2 0.6 0.2 0.2 0 0.4-0.1 0.6-0.2l23.6-23.6 1.9-1.9 6.8-6.8c12.4-12.4 32.4-15.7 46.8-5.6 8.7 6 14.3 15.5 15.2 26.1 1 10.5-2.8 20.9-10.2 28.4l-22.4 22.4c-4.3 4.3-6 10.6-4.4 16.5 1.6 5.9 6.2 10.5 12.1 12.1 5.9 1.6 12.2-0.1 16.5-4.4l20.9-20.9c12.4-12.4 32.4-15.7 46.8-5.6 8.7 6 14.3 15.5 15.2 26.1 1 10.5-2.8 20.9-10.2 28.4l-22.4 22.4c-4.3 4.3-6 10.6-4.4 16.5 1.6 5.9 6.2 10.5 12.1 12.1 5.9 1.6 12.2-0.1 16.5-4.4l20.9-20.9c12.4-12.4 32.4-15.7 46.8-5.6 8.7 6 14.3 15.5 15.2 26.1 1 10.5-2.8 20.9-10.3 28.4L716 258.2c-4.3 4.3-6 10.6-4.4 16.5 1.6 5.9 6.2 10.5 12.1 12.1 5.9 1.6 12.2-0.1 16.5-4.4l20.9-20.9c12.4-12.4 32.4-15.7 46.8-5.6 8.7 6 14.3 15.5 15.2 26.1 1 10.5-2.8 20.9-10.2 28.4L635.3 487.9z m0 0M833.8 699.8c-75.9 62.8-191.6 55.7-263.5-16.1L553.6 667l-0.1 0.1-119.7-119.7c-12.9-12.9-8.6-34.6 8.2-41.9 32-14.1 78.6-23 117.6 16l39.3 39.3c4.8 4.8 11.4 7.5 18.2 7.5 6.8 0 13.4-2.7 18.2-7.5l161.4-161.4c4.8-4.8 11.4-7.5 18.2-7.5s13.4 2.7 18.2 7.5l14.4 14.4c38.3 38.3 58.8 91.5 56.2 146-2.5 55.1-27.4 104.9-69.9 140z m0 0"  horiz-adv-x="1024" />

    
    <glyph glyph-name="shuiguo1zui" unicode="&#58705;" d="M656.741 590.297a260.367 260.367 0 0 0-196.731-75.6978 259.535 259.535 0 0 0 272.013 272.429 259.951 259.951 0 0 0-75.2819-196.731ZM656.741 590.297a260.367 260.367 0 0 0-196.731-75.6978 259.535 259.535 0 0 0 272.013 272.429 259.951 259.951 0 0 0-75.2819-196.731ZM656.741 590.297a260.367 260.367 0 0 0-196.731-75.6978l272.013 272.429a259.951 259.951 0 0 0-75.2819-196.731ZM596.432 703.428a260.367 260.367 0 0 0-85.264-192.572 259.535 259.535 0 0 0 0 385.144 260.783 260.783 0 0 0 85.264-192.572ZM596.432 703.428a260.367 260.367 0 0 0-85.264-192.572 259.535 259.535 0 0 0 0 385.144 260.783 260.783 0 0 0 85.264-192.572ZM596.432 703.428a260.367 260.367 0 0 0-85.264-192.572V896a260.783 260.783 0 0 0 85.264-192.572ZM619.724 542.8820000000001m-108.14 0a108.14 108.14 0 1 1 216.279 0 108.14 108.14 0 1 1-216.279 0ZM619.724 542.8820000000001m-80.2729 0a80.2729 80.2729 0 1 1 160.546 0 80.2729 80.2729 0 1 1-160.546 0ZM571.477 586.554m-26.2031 0a26.2031 26.2031 0 1 1 52.4062 0 26.2031 26.2031 0 1 1-52.4062 0ZM403.028 542.8820000000001m-108.14 0a108.14 108.14 0 1 1 216.279 0 108.14 108.14 0 1 1-216.279 0ZM403.028 542.8820000000001m-80.2729 0a80.2729 80.2729 0 1 1 160.546 0 80.2729 80.2729 0 1 1-160.546 0ZM355.197 586.554m-26.2031 0a26.2031 26.2031 0 1 1 52.4062 0 26.2031 26.2031 0 1 1-52.4062 0ZM186.749 326.187m-108.14 0a108.14 108.14 0 1 1 216.279 0 108.14 108.14 0 1 1-216.279 0ZM186.749 326.187m-80.2729 0a80.2729 80.2729 0 1 1 160.546 0 80.2729 80.2729 0 1 1-160.546 0ZM138.918 369.85900000000004m-26.2031 0a26.2031 26.2031 0 1 1 52.4062 0 26.2031 26.2031 0 1 1-52.4062 0ZM727.864 440.565m-108.14 0a108.14 108.14 0 1 1 216.279 0 108.14 108.14 0 1 1-216.279 0ZM727.864 440.565m-80.6889 0a80.6889 80.6889 0 1 1 161.378 0 80.6889 80.6889 0 1 1-161.378 0ZM679.617 484.237m-26.2031 0a26.2031 26.2031 0 1 1 52.4062 0 26.2031 26.2031 0 1 1-52.4062 0ZM511.168 440.565m-108.14 0a108.14 108.14 0 1 1 216.279 0 108.14 108.14 0 1 1-216.279 0ZM511.168 440.565m-80.2729 0a80.2729 80.2729 0 1 1 160.546 0 80.2729 80.2729 0 1 1-160.546 0ZM463.337 484.237m-26.2031 0a26.2031 26.2031 0 1 1 52.4062 0 26.2031 26.2031 0 1 1-52.4062 0ZM294.889 440.565m-108.14 0a108.14 108.14 0 1 1 216.279 0 108.14 108.14 0 1 1-216.279 0ZM294.889 440.565m-80.2729 0a80.2729 80.2729 0 1 1 160.546 0 80.2729 80.2729 0 1 1-160.546 0ZM247.058 484.237m-26.2031 0a26.2031 26.2031 0 1 1 52.4062 0 26.2031 26.2031 0 1 1-52.4062 0ZM727.864 218.04700000000003m-108.14 0a108.14 108.14 0 1 1 216.279 0 108.14 108.14 0 1 1-216.279 0ZM727.864 218.04700000000003m-80.6889 0a80.6889 80.6889 0 1 1 161.378 0 80.6889 80.6889 0 1 1-161.378 0ZM679.617 261.71900000000005m-26.2031 0a26.2031 26.2031 0 1 1 52.4062 0 26.2031 26.2031 0 1 1-52.4062 0ZM511.168 218.04700000000003m-108.14 0a108.14 108.14 0 1 1 216.279 0 108.14 108.14 0 1 1-216.279 0ZM511.168 218.04700000000003m-80.2729 0a80.2729 80.2729 0 1 1 160.546 0 80.2729 80.2729 0 1 1-160.546 0ZM463.337 261.71900000000005m-26.2031 0a26.2031 26.2031 0 1 1 52.4062 0 26.2031 26.2031 0 1 1-52.4062 0ZM294.889 218.04700000000003m-108.14 0a108.14 108.14 0 1 1 216.279 0 108.14 108.14 0 1 1-216.279 0ZM294.889 218.04700000000003m-80.2729 0a80.2729 80.2729 0 1 1 160.546 0 80.2729 80.2729 0 1 1-160.546 0ZM247.058 261.71900000000005m-26.2031 0a26.2031 26.2031 0 1 1 52.4062 0 26.2031 26.2031 0 1 1-52.4062 0ZM403.028 326.187m-108.14 0a108.14 108.14 0 1 1 216.279 0 108.14 108.14 0 1 1-216.279 0ZM403.028 326.187m-80.2729 0a80.2729 80.2729 0 1 1 160.546 0 80.2729 80.2729 0 1 1-160.546 0ZM355.197 369.85900000000004m-26.2031 0a26.2031 26.2031 0 1 1 52.4062 0 26.2031 26.2031 0 1 1-52.4062 0ZM619.724 326.187m-108.14 0a108.14 108.14 0 1 1 216.279 0 108.14 108.14 0 1 1-216.279 0ZM619.724 326.187m-80.2729 0a80.2729 80.2729 0 1 1 160.546 0 80.2729 80.2729 0 1 1-160.546 0ZM571.477 369.85900000000004m-26.2031 0a26.2031 26.2031 0 1 1 52.4062 0 26.2031 26.2031 0 1 1-52.4062 0ZM512 231.47799999999995H77.3615l118.538-338.145h632.617l118.122 338.145H512ZM836.003 326.187m-108.14 0a108.14 108.14 0 1 1 216.279 0 108.14 108.14 0 1 1-216.279 0ZM836.003 326.187m-80.6889 0a80.6889 80.6889 0 1 1 161.378 0 80.6889 80.6889 0 1 1-161.378 0ZM787.756 369.85900000000004m-26.2031 0a26.2031 26.2031 0 1 1 52.4062 0 26.2031 26.2031 0 1 1-52.4062 0ZM30.3623 289.586h963.275v-79.4411H30.3623Z"  horiz-adv-x="1024" />

    
    <glyph glyph-name="wode1" unicode="&#58898;" d="M512.852-64.993H215.024c-44.966 0-84.41 38.277-84.41 81.927 0 99.942 103.814 247.438 209.58 297.758 12.917 6.17 28.419 0.665 34.583-12.283 6.158-12.943 0.653-28.427-12.284-34.585-95.242-45.309-179.98-178.035-179.98-250.89 0-15.154 16.103-30.029 32.51-30.029h297.828c14.33 0 25.948-11.619 25.948-25.949 0-14.33-11.617-25.949-25.947-25.949zM810.679-64.993H512.852c-14.33 0-25.95 11.619-25.95 25.948 0 14.33 11.62 25.949 25.95 25.949h297.827c16.409 0 32.511 14.875 32.511 30.029 0 72.854-84.738 205.58-179.98 250.89-12.937 6.158-18.442 21.64-12.284 34.585 6.157 12.935 21.634 18.453 34.583 12.283 105.764-50.32 209.58-197.816 209.58-297.758 0-43.648-39.443-81.926-84.41-81.926zM516.741 318.227c-140.664 0-255.103 114.438-255.103 255.103 0 140.66 114.439 255.097 255.103 255.097 140.66 0 255.097-114.438 255.097-255.103 0-140.66-114.437-255.097-255.097-255.097z m0 458.302c-112.048 0-203.206-91.157-203.206-203.2 0-112.05 91.158-203.206 203.206-203.206 112.043 0 203.2 91.156 203.2 203.199 0 112.05-91.157 203.207-203.2 203.207zM370.52 560.356c-7.165 0-12.974 5.809-12.974 12.974 0 87.78 71.416 159.189 159.195 159.189 7.166 0 12.976-5.81 12.976-12.975s-5.81-12.974-12.976-12.974c-73.474 0-133.246-59.773-133.246-133.241 0-7.164-5.81-12.973-12.975-12.973zM397.438 520.887c0-7.241-5.872-13.114-13.113-13.114-7.235 0-13.108 5.873-13.108 13.114 0 7.234 5.873 13.107 13.108 13.107 7.24 0.001 13.113-5.872 13.113-13.107z"  horiz-adv-x="1024" />

    
    <glyph glyph-name="icon-test1" unicode="&#59128;" d="M84.385185 364.088889c-5.688889-55.940741 18.014815-94.814815 39.822222-136.533333h22.755556l-1.896296 26.548148c0 3.792593-0.948148 6.637037-0.948148 10.429629 0 24.651852 9.481481 46.459259 25.6 62.577778 16.118519 16.118519 37.925926 25.6 62.577777 25.6 48.355556 0 88.177778-39.822222 88.177778-88.177778v-5.688889l-0.948148-31.288888h375.466667l-1.896297 26.548148c0 3.792593-0.948148 6.637037-0.948148 10.429629 0 24.651852 9.481481 46.459259 25.6 62.577778 16.118519 16.118519 37.925926 25.6 62.577778 25.6 48.355556 0 88.177778-39.822222 88.177778-88.177778v-5.688889l-0.948148-31.288888v-7.585186h73.955555l15.17037 73.007408-7.585185 18.014815-7.585185-1.896297c-7.585185 25.6-21.807407 47.407407-43.614815 66.370371-46.459259 13.274074-103.348148 22.755556-181.096296 27.496296-33.185185 31.288889-76.8 63.525926-124.207407 86.281481-12.325926 2.844444-22.755556 0.948148-32.237037-3.792592 23.703704-17.066667 50.251852-48.355556 60.681481-75.851852-48.355556 1.896296-109.985185 4.740741-164.977778 7.585185L436.148148 470.281481s-19.911111 1.896296-24.651852 0.948149c-3.792593-0.948148 1.896296-36.02963 4.740741-54.044445H407.703704l-9.481482 58.785185c-13.274074 2.844444-16.118519 4.740741-29.392592 7.585186-98.607407-4.740741-107.140741-22.755556-188.681482-44.562963-37.925926-2.844444-74.903704-5.688889-112.829629-7.585186 5.688889-22.755556 11.377778-45.511111 17.066666-67.318518z m154.548148 12.325926c128-4.740741 274.962963-16.118519 413.392593-63.525926 11.377778 18.014815 25.6 33.185185 41.718518 46.459259-18.014815-20.859259-28.444444-43.614815-35.081481-68.266667-131.792593 54.044444-286.340741 73.955556-420.02963 85.333334z m-5.688889-33.185185c21.807407 0 40.77037-8.533333 54.992593-22.755556s22.755556-34.133333 22.755556-54.992593c0-21.807407-8.533333-40.77037-22.755556-54.992592s-34.133333-22.755556-54.992593-22.755556-41.718519 8.533333-54.992592 22.755556c-14.222222 14.222222-22.755556 34.133333-22.755556 54.992592 0 21.807407 8.533333 40.77037 22.755556 54.992593 13.274074 13.274074 33.185185 22.755556 54.992592 22.755556z m24.651852-130.844445c-5.688889-2.844444-12.325926-4.740741-18.962963-4.740741v38.874075l18.962963-34.133334z m-38.874074 66.370371l-33.185185 18.962963c1.896296 2.844444 3.792593 5.688889 6.637037 7.585185 1.896296 1.896296 4.740741 4.740741 7.585185 6.637037l18.962963-33.185185z m-10.429629 37.925925c5.688889 2.844444 12.325926 4.740741 18.962963 4.740741v-38.874074l-18.962963 34.133333z m37.925926-66.37037l33.185185-18.962963c-1.896296-2.844444-3.792593-5.688889-6.637037-7.585185-1.896296-2.844444-4.740741-4.740741-7.585186-6.637037l-18.962962 33.185185z m-32.237038 18.962963h-38.874074c0.948148 6.637037 2.844444 13.274074 4.740741 18.962963l34.133333-18.962963z m37.925926-9.481481h38.874074c-0.948148-6.637037-1.896296-13.274074-4.74074-18.962963l-34.133334 18.962963z m-37.925926 0l-33.185185-18.962963c-2.844444 5.688889-4.740741 12.325926-4.74074 18.962963h37.925925z m37.925926 9.481481l33.185186 18.962963c2.844444-5.688889 4.740741-12.325926 4.74074-18.962963h-37.925926z m-33.185185-18.962963l-18.962963-33.185185c-2.844444 1.896296-5.688889 3.792593-7.585185 6.637037-1.896296 1.896296-4.740741 4.740741-6.637037 7.585185l33.185185 18.962963z m27.496297 28.444445l18.962962 33.185185c2.844444-1.896296 5.688889-3.792593 7.585186-6.637037 1.896296-2.844444 4.740741-4.740741 6.637037-7.585185l-33.185185-18.962963z m-18.962963-33.185186v-38.874074c-6.637037 0.948148-13.274074 2.844444-18.962963 4.740741l18.962963 34.133333z m10.429629 37.925926v38.874074c6.637037-0.948148 13.274074-2.844444 18.962963-4.74074l-18.962963-34.133334z m542.340741 59.733334c21.807407 0 40.77037-8.533333 54.992593-22.755556s22.755556-34.133333 22.755555-54.992593c0-21.807407-8.533333-40.77037-22.755555-54.992592s-34.133333-22.755556-54.992593-22.755556c-21.807407 0-40.77037 8.533333-54.992593 22.755556-14.222222 13.274074-23.703704 32.237037-23.703703 54.044444 0 21.807407 8.533333 40.77037 22.755555 54.992593 15.17037 14.222222 34.133333 23.703704 55.940741 23.703704z m24.651852-130.844445c-5.688889-2.844444-12.325926-4.740741-18.962963-4.740741v38.874075l18.962963-34.133334z m-38.874074 66.370371l-33.185185 18.962963c1.896296 2.844444 3.792593 5.688889 6.637037 7.585185 2.844444 1.896296 4.740741 4.740741 7.585185 6.637037l18.962963-33.185185z m-10.42963 37.925925c5.688889 2.844444 12.325926 4.740741 18.962963 4.740741v-38.874074l-18.962963 34.133333z m38.874074-66.37037l33.185185-18.962963c-1.896296-2.844444-3.792593-5.688889-6.637037-7.585185-1.896296-2.844444-4.740741-4.740741-7.585185-6.637037l-18.962963 33.185185z m-33.185185 18.962963h-38.874074c0.948148 6.637037 2.844444 13.274074 4.740741 18.962963l34.133333-18.962963z m37.925926-9.481481h38.874074c-0.948148-6.637037-2.844444-13.274074-4.740741-18.962963l-34.133333 18.962963z m-37.925926 0l-33.185185-18.962963c-2.844444 5.688889-4.740741 12.325926-4.740741 18.962963h37.925926z m37.925926 9.481481l33.185185 18.962963c2.844444-5.688889 4.740741-12.325926 4.740741-18.962963h-37.925926z m-33.185185-18.962963l-18.962963-33.185185c-2.844444 1.896296-5.688889 3.792593-7.585185 6.637037-1.896296 1.896296-4.740741 4.740741-6.637037 7.585185l33.185185 18.962963z m28.444444 28.444445l18.962963 33.185185c2.844444-1.896296 5.688889-3.792593 7.585185-6.637037 2.844444-2.844444 4.740741-4.740741 6.637037-7.585185l-33.185185-18.962963z m-18.962963-33.185186v-38.874074c-6.637037 0.948148-13.274074 2.844444-18.962963 4.740741l18.962963 34.133333z m9.481482 37.925926v38.874074c6.637037-0.948148 13.274074-2.844444 18.962963-4.74074l-18.962963-34.133334z m84.385185 78.696297l27.496296-1.896297c16.118519-17.066667 26.548148-35.081481 33.185185-53.096296L891.259259 318.577778c-1.896296 8.533333-5.688889 17.066667-9.481481 25.6-3.792593 5.688889-7.585185 12.325926-12.325926 18.014815z m12.325926-41.718519l-10.42963 2.844445c-6.637037 14.222222-17.066667 28.444444-29.392592 40.77037l17.066666-0.948148c5.688889-7.585185 11.377778-15.17037 15.170371-23.703704 2.844444-5.688889 5.688889-12.325926 7.585185-18.962963z"  horiz-adv-x="1024" />

    
    <glyph glyph-name="star" unicode="&#58644;" d="M928.08002009-64.97442364000005c-13.10458359 0-27.91846055 3.76044609-41.5928083 10.59761954l-195.31526923 97.65763506L494.60319041-54.14889844000004c-12.42086573-6.60926777-26.66497852-10.1418082-41.25094893-10.1418082-18.91618154-0.11395283-37.26259805 5.92555078-52.41833438 17.20688818-27.46264834 20.6254749-41.5928083 56.40668526-35.09749248 88.88326172l40.22537344 208.53380567L251.88351492 394.02785537c-23.81615596 24.15801445-32.93238779 59.14155498-23.93010879 91.73208428l0.34185849 1.02557548c11.16738457 33.61610567 38.97189141 57.09040224 72.7019499 61.64851905L515.11471247 587.4059255899999l96.06229454 195.20131641c15.38364112 30.88123594 46.83464209 50.70904013 79.99493555 50.709041 34.64168115 0 66.89035195-20.6254749 80.33679404-51.27880517l95.72043516-194.63155224 214.11749794-37.49050371c33.95796416-4.89997442 61.87642471-29.28589541 71.33451504-62.33223604 10.59761953-32.47657646 1.93719902-68.02988115-22.33476826-92.07394277l-0.56976416-0.56976504-153.60850811-144.72018194 38.85793858-208.87566503c6.26740928-33.38819912-7.06507998-67.11825762-34.64168203-88.19954385-14.81387695-11.85110156-33.27424628-18.23246367-52.30438067-18.11851084z m-236.90807753 165.23170401l217.99189599-109.05292441c6.38136211-3.19068106 13.78830059-5.24183378 18.80222871-5.24183379 7.74879698 0 15.04178261 2.39301123 20.28361641 6.83717431l1.02557549 0.79766983c12.42086573 9.3441375 18.46036933 24.04406162 15.72550049 38.51608007l-43.8718667 236.33831339 173.55026602 163.40845781c10.59761953 10.82552519 14.24411279 26.20916719 9.57204404 40.4532791l-0.45581221 1.4813877c-3.87439893 13.78830059-15.49759395 23.93010879-29.62775303 25.86730869l-1.02557637 0.11395283L833.04330193 541.71081269 725.01595301 761.1840972699999c-5.24183378 12.30691289-19.4859457 21.19523906-33.84401045 21.19523906-14.13015997 0-27.57660205-8.88832617-34.52772921-22.4487211L549.3005823 541.8247655299999 307.94834168 497.95289971c-14.69992412-1.82324619-26.09521435-11.6231959-31.33704727-26.77893135-3.76044609-13.90225342 0.683717-30.53937744 10.93947803-41.02304414l173.66421885-161.92707012-45.58116007-236.45226621c-2.73486972-13.67434776 3.76044609-29.39984824 15.72550049-38.40212724 6.03950362-4.55811592 13.78830059-6.95112715 21.99290977-6.95112716 6.26740928 0 12.30691289 1.48138769 17.5487458 4.21625743l0.7976707 0.45581132 219.47328457 109.16687813z m0 0"  horiz-adv-x="1427" />

    
    <glyph glyph-name="shenglvehao" unicode="&#59144;" d="M221 304c-44.183 0-80 35.817-80 80s35.817 80 80 80 80-35.817 80-80-35.817-80-80-80z m291 0c-44.183 0-80 35.817-80 80s35.817 80 80 80 80-35.817 80-80-35.817-80-80-80z m291 0c-44.183 0-80 35.817-80 80s35.817 80 80 80 80-35.817 80-80-35.817-80-80-80z"  horiz-adv-x="1024" />

    
    <glyph glyph-name="zihangche" unicode="&#59026;" d="M314.624 650.666667H234.666667v64h213.333333v-64h-68.330667l73.706667-405.333334h3.349333L744.746667 514.176 708.330667 714.666667h216.234666l14.101334-64h-153.664l78.485333-431.616-62.976-11.434667-42.133333 231.722667L481.941333 181.333333H192l-15.466667 64h211.797334l-73.706667 405.333334z m547.2-258.432a181.333333 181.333333 0 1 0-125.568-24.853334l13.653333-70.208a117.333333 117.333333 0 1 1 125.504 25.216l-13.589333 69.845334zM361.706667 149.333333a181.333333 181.333333 0 1 0 0 128h-71.338667a117.333333 117.333333 0 1 1 0-128h71.338667z"  horiz-adv-x="1024" />

    
    <glyph glyph-name="shui" unicode="&#58649;" d="M511.9232 874.8544C240.8192 874.8544 21.0688 655.104 21.0688 384s219.7504-490.8544 490.8544-490.8544S1002.752 112.896 1002.752 384C1002.88 655.0016 783.2576 874.752 512.256 874.8544h-0.3328z m185.856-196.5824H785.92l-32.7424-92.2112H665.344l32.4352 92.2112z m-93.952 0l33.536-92.2112h-89.4208l-31.488 92.2112h87.3472z m-311.3728-563.456H215.168l21.632 310.1952h75.1104l-19.456-310.1696z m130.432 1.0496l-16.5376 307.968h73.216l17.7408-307.968h-74.4192z m48.1024 341.0176H403.456v-334.336l-87.1168-37.9136V456.8832H220.2624v72.832h96.0256V589.568l-93.184-10.24V657.5872L498.2784 683.264l-18.688-76.8768-76.0832-9.5232v-67.1744h98.048l-30.5408-72.832z m124.3136-361.4464h-93.4656l53.4016 212.2496h89.4464l-49.3824-212.224z m178.8672-1.1776h-118.6048v235.3664h-143.6416v229.9648h280.064v-160.3328l-49.3824-55.9616v-180.4544h58.1888l-26.624-68.608zM599.5264 490.2912h103.424v-91.0336h-103.424z"  horiz-adv-x="1024" />

    
    <glyph glyph-name="hotel-fill" unicode="&#59053;" d="M725.333333 85.333333h85.333334v341.333334h-256v-341.333334h85.333333v256h85.333333v-256zM128 85.333333V725.333333a42.666667 42.666667 0 0 0 42.666667 42.666667h597.333333a42.666667 42.666667 0 0 0 42.666667-42.666667v-213.333333h85.333333v-426.666667h42.666667v-85.333333H85.333333v85.333333h42.666667z m170.666667 341.333334v-85.333334h85.333333v85.333334H298.666667z m0-170.666667v-85.333333h85.333333v85.333333H298.666667z m0 341.333333v-85.333333h85.333333V597.333333H298.666667z"  horiz-adv-x="1024" />

    
    <glyph glyph-name="pingjia" unicode="&#58923;" d="M820 384c0 16.569 13.431 30 30 30 16.569 0 30-13.431 30-30v-261.083c0-28.914-2.975-44.318-11.56-60.37-8.025-15.006-19.98-26.962-34.987-34.987-16.052-8.585-31.456-11.56-60.37-11.56H250.917c-28.914 0-44.318 2.975-60.37 11.56-15.006 8.025-26.962 19.98-34.987 34.987-8.585 16.052-11.56 31.456-11.56 60.37V645.083c0 28.914 2.975 44.318 11.56 60.37 8.025 15.006 19.98 26.962 34.987 34.987 16.052 8.585 31.456 11.56 60.37 11.56H512c16.569 0 30-13.431 30-30 0-16.569-13.431-30-30-30H250.917c-19.856 0-25.903-1.168-32.074-4.468-4.55-2.434-7.941-5.825-10.375-10.375-3.3-6.171-4.468-12.218-4.468-32.074v-522.166c0-19.856 1.168-25.903 4.468-32.074 2.434-4.55 5.825-7.941 10.375-10.375 6.171-3.3 12.218-4.468 32.074-4.468h522.166c19.856 0 25.903 1.168 32.074 4.468 4.55 2.434 7.941 5.825 10.375 10.375 3.3 6.171 4.468 12.218 4.468 32.074V384z m-57.653 306l56.569-56.569-303.948-303.947c-3.286-3.287-4.542-4.305-6.093-5.274a15.67 15.67 0 0 0-4.909-2.034c-1.781-0.41-3.39-0.579-8.037-0.579h-35.16c-3.566 0-4.86 0.372-6.163 1.069a7.27 7.27 0 0 0-3.024 3.024c-0.697 1.304-1.069 2.597-1.069 6.163v35.16c0 4.648 0.169 6.256 0.58 8.037a15.67 15.67 0 0 0 2.033 4.91c0.97 1.55 1.987 2.806 5.274 6.092L762.347 690z m73.512 45.496l27.561-27.561c5.044-5.043 6.347-7.397 7.205-10.227 0.858-2.83 0.858-5.724 0-8.553-0.858-2.83-2.161-5.184-7.205-10.227l-20.851-20.852L786 714.645l20.852 20.851c5.043 5.044 7.397 6.347 10.227 7.205a14.538 14.538 0 0 0 8.553 0c2.83-0.858 5.184-2.161 10.227-7.205z"  horiz-adv-x="1024" />

    
    <glyph glyph-name="lishi" unicode="&#58968;" d="M511.87 831.78c-247.24 0-447.66-200.42-447.66-447.66 0-247.27 200.41-447.67 447.66-447.67 247.27 0 447.66 200.41 447.66 447.67 0.01 247.24-200.39 447.66-447.66 447.66z m0-817.12c-204.06 0-369.45 165.39-369.45 369.46 0 204.06 165.39 369.45 369.45 369.45 204.07 0 369.46-165.39 369.46-369.45 0-204.08-165.39-369.46-369.46-369.46zM525.89 378.28V557.06c0 21.6-17.51 39.11-39.11 39.11-21.6 0-39.11-17.51-39.11-39.11v-195.68c0-13.03 6.37-24.56 16.17-31.66l138.1-138.1c15.27-15.27 40.03-15.27 55.31 0 15.27 15.27 15.27 40.03 0 55.31L525.89 378.28z"  horiz-adv-x="1024" />

    
    <glyph glyph-name="dianying" unicode="&#59566;" d="M844.832 10.656c-30.485333 20.714667-77.781333 18.965333-144.053333-9.386667A425.024 425.024 0 0 0 512-42.666667C276.362667-42.666667 85.333333 148.362667 85.333333 384S276.362667 810.666667 512 810.666667s426.666667-191.029333 426.666667-426.666667a425.013333 425.013333 0 0 0-44.405334-189.717333 32 32 0 0 0-57.301333 28.490666A361.013333 361.013333 0 0 1 874.666667 384c0 200.298667-162.368 362.666667-362.666667 362.666667S149.333333 584.298667 149.333333 384s162.368-362.666667 362.666667-362.666667c56.704 0 111.488 13.013333 161.12 37.653334l1.6 0.746666c84.746667 36.437333 154.176 39.125333 206.08 3.861334a32 32 0 1 0-35.968-52.938667zM512 480a64 64 0 1 0 0 128 64 64 0 0 0 0-128z m160-160a64 64 0 1 0 0 128 64 64 0 0 0 0-128zM512 160a64 64 0 1 0 0 128 64 64 0 0 0 0-128zM352 320a64 64 0 1 0 0 128 64 64 0 0 0 0-128z"  horiz-adv-x="1024" />

    
    <glyph glyph-name="yingyuan" unicode="&#59584;" d="M864 42.666667a32 32 0 0 0 0-64H160a32 32 0 0 0 0 64z m-42.666667 746.666666c64.8 0 117.333333-52.533333 117.333334-117.333333v-540.309333a42.666667 42.666667 0 0 0-78.336-23.402667L672.405333 394.656C628.48 373.184 574.912 362.666667 512 362.666667s-116.48 10.517333-160.405333 31.989333L163.669333 108.288A42.666667 42.666667 0 0 0 85.333333 131.690667V672c0 64.8 52.533333 117.333333 117.333334 117.333333h618.666666z m0-64H202.666667a53.333333 53.333333 0 0 1-53.333334-53.333333v-468.906667l165.248 251.797334a32 32 0 0 0 44.501334 9.066666C395.978667 439.36 446.762667 426.666667 512 426.666667s116.021333 12.693333 152.917333 37.290666a32 32 0 0 0 44.501334-9.066666L874.666667 203.082667V672a53.333333 53.333333 0 0 1-53.333334 53.333333z"  horiz-adv-x="1024" />

    
    <glyph glyph-name="xiala" unicode="&#59129;" d="M561.873 170.835c-11.262-11.262-26.545-21.72-41.025-18.502-14.479-2.413-28.154 8.849-39.415 18.502L133.129 520.748c-17.697 17.696-17.697 46.655 0 64.352s46.655 17.696 64.351 0l324.173-333.021 324.977 333.02c17.696 17.697 46.655 17.697 64.351 0s17.697-46.655 0-64.351L561.873 170.835z"  horiz-adv-x="1024" />

    
    <glyph glyph-name="ai-hongbao" unicode="&#58626;" d="M854.56 896l-689.376 0c-109.024 0-133.184-30.56-133.184-146.144l0-57.216c72.224-37.6 163.328-85.44 264.96-117.792 28.32 89.216 112.928 153.952 212.896 153.952 99.84 0 184.352-64.576 212.736-153.568 102.528 33.664 192.32 84.224 265.12 124.096l0 50.56c0.032 115.552-24.16 146.112-133.152 146.112zM509.856 289.952c-118.496 0-215.136 91.008-222.304 205.824-92.032 29.152-179.008 69.792-255.552 105.44l0-604.448c0-115.552 24.16-124.768 133.184-124.768l689.344 0c109.024 0 133.184 9.216 133.184 124.8l0 610.144c-77.728-37.92-163.616-80.416-255.552-110.56-6.816-115.104-103.584-206.432-222.304-206.432zM566.048 657.056l-45.216-100.64c-3.744-8.48-6.496-14.976-8.256-19.456l-0.8 0-54.656 120.128-66.72 0 74.752-134.016-56.672 0 0-38.176 69.12 0 0-32.96-69.12 0 0-38.176 69.12 0 0-55.36 63.328 0 0 55.328 66.912 0 0 38.176-66.912 0 0 32.96 66.912 0 0 38.176-55.488 0 76.96 134.016-63.264 0z"  horiz-adv-x="1024" />

    
    <glyph glyph-name="hongbao1" unicode="&#58975;" d="M792.064 895.0016H230.144C152.9344 895.0016 89.728 831.7952 89.728 754.5344v-49.152c0-21.0688 224.768-112.384 421.4016-112.384 196.6592 0 421.4272 91.3152 421.4272 112.384v49.152c0 77.2608-63.232 140.4672-140.4672 140.4672zM511.104 525.1072c-124.0832 0-245.8112 32.768-306.688 51.5072C162.2784 588.288 122.4704 602.368 89.7024 621.056v-601.6768c0-77.2608 63.2064-140.4672 140.4672-140.4672H792.064c77.2608 0 140.4672 63.2064 140.4672 140.4672V621.056c-28.1088-14.0288-63.232-28.0832-114.7136-44.4672-60.8768-21.0688-182.6304-51.5072-306.688-51.5072z m121.7536-271.5904v-37.4528h-77.2608v-32.768h77.2608v-37.4784h-77.2608v-70.2208h-65.536v70.2208h-77.2864V183.296h77.2608v32.768h-77.2608v37.4528h58.5472l-88.9856 163.8912h72.576l67.8912-138.1376 67.9168 138.1376h72.576l-88.9856-163.8912h58.5472z"  horiz-adv-x="1024" />

    
    <glyph glyph-name="QX-mojitianqi" unicode="&#59290;" d="M853.343368 896H170.656632A170.656632 170.656632 0 0 1 0 725.343368v-682.656632a170.656632 170.656632 0 0 1 170.656632-170.656633h682.686736a170.656632 170.656632 0 0 1 170.656632 170.656633V725.343368A170.656632 170.656632 0 0 1 853.343368 896zM85.313264 483.431797c79.804327 75.288805 190.886171 73.121355 285.441204-23.209784 94.585136-96.331138 275.928504-3.4619 275.928505-3.4619-173.546566-216.955786-336.797742-56.112888-336.797743-56.112888s-8.549389 8.398871-64.933207 57.407338c-56.383819 49.068674-159.638758 25.377234-159.638759 25.377234z m853.222954-119.510819c-8.12794-124.357479-121.467545-124.357479-121.467544-124.357478-2.920038-109.907808-93.712135-129.595484-93.712136-129.595485-104.12794-31.819379-148.079022 45.727187-148.079022 45.727187-15.05174-19.11571-78.088429-59.574788-144.045155-22.57761s-61.32079 111.65381-61.32079 111.65381c-126.675447 30.645343-135.947319 144.015052-135.947319 144.015051 87.932267-75.800564 173.546566-78.088429 173.546566-78.088429 157.350894-0.60207 257.866416 97.475071 257.866416 97.475071-29.501411-47.714017-63.789276-88.082785-119.330197-134.502352-55.540922-46.419567-127.096896-39.044214-127.096896-39.044214 25.587959-43.349012 74.626529-45.095014 74.626529-45.095014 68.124177 2.137347 87.661336 50.302916 87.661336 50.302916 39.495767-82.001881 112.797742-46.419567 112.797742-46.419567 76.342427 45.57667 39.887112 104.12794 39.887112 104.127939 62.464722-15.172154 96.301035 16.045155 96.301035 16.045156 51.175917 45.57667 7.375353 89.828786 7.375352 89.828786-53.79492 49.008467-117.132643 16.045155-117.132643 16.045155-12.161806 128.963311-100.66604 146.904986-100.66604 146.904986-89.076199 19.657573-135.375353-54.366886-135.375352-54.366886 58.430856-19.657573 128.421449-3.4619 128.421448-3.4619-69.990593-75.800564-134.803387-56.684854-134.803386-56.684854-103.495767 20.169332-103.495767 134.472248-103.495767 134.472248 47.412982-54.637817 83.838194-66.227658 83.838194-66.227658 26.039511 160.240828 168.940734 145.189087 168.940734 145.189088 166.562559-21.403575 142.871119-174.690499 142.871119-174.690499 25.467545 8.669802 57.828786 5.207902 57.828787 5.207902 119.17968-18.513641 110.509878-131.883349 110.509877-131.883349z"  horiz-adv-x="1024" />

    
    <glyph glyph-name="fapiao" unicode="&#59046;" d="M892.1 894.1H131.8c-23.7 0-44.9-21.2-44.9-44.9v-930.5c0-18.1 11.8-35.6 29.9-41.8 3.1-3.1 8.8-3.1 15-3.1 11.9 0 24.3 6.2 35.6 14.9l92.9 101.7 92.9-101.7c9.4-8.8 21.2-15 33.1-15 11.9 0 24.4 6.3 33.1 15l92.9 101.7 91.7-101.7c18.1-18.1 48-18.1 66.1 0l96.1 101.7 92.9-101.7c11.8-15 29.9-18.1 48-11.9 18 5.6 29.9 23.7 29.9 41.8V849.2c0 23.7-21.2 44.9-44.9 44.9zM282 711h179c28 0 51-22.9 51-51s-22.9-51-51-51H282c-28 0-51 22.9-51 51 0 28 22.9 51 51 51z m0-196h241c28 0 51-22.9 51-51s-22.9-51-51-51H282c-28 0-51 22.9-51 51 0 28 22.9 51 51 51z m416-298H282c-28 0-51 22.9-51 51 0 28 22.9 51 51 51h416c28 0 51-22.9 51-51s-22.9-51-51-51z"  horiz-adv-x="1024" />

    
    <glyph glyph-name="lanzi" unicode="&#59132;" d="M882.688 418.816c-6.144 0-11.264-1.024-17.408-3.072v3.072H743.424L653.312 629.76v1.024h-281.6v-70.656h281.6v-32.768l46.08-108.544h-373.76l45.056 108.544V630.784L281.6 418.816H159.744v-3.072c-5.12 2.048-11.264 3.072-17.408 3.072-29.696 0-53.248-23.552-53.248-53.248 0-29.696 23.552-53.248 53.248-53.248 6.144 0 12.288 1.024 17.408 3.072v-3.072h105.472-105.472L179.2 33.792l38.912-38.912h588.8l38.912 37.888L865.28 312.32H759.808h106.496v4.096c5.12-2.048 11.264-3.072 17.408-3.072 29.696 0 53.248 23.552 53.248 53.248-2.048 28.672-25.6 52.224-54.272 52.224zM280.576 312.32h463.872-463.872z m54.272-210.944h-70.656V277.504h1.024v-1.024 1.024h69.632v-176.128z m142.336 0h-70.656V277.504h70.656v-176.128z m141.312 0H547.84V277.504h70.656v-176.128z m140.288 0h-70.656V277.504h70.656v-176.128z"  horiz-adv-x="1024" />

    
    <glyph glyph-name="shezhi" unicode="&#59152;" d="M1002.604 480.364c-8.677 46.241-40.799 76.854-82.998 76.854h-1.833c-42.738 0-77.608 35.031-77.608 77.985 0 9.701 4.743 23.822 6.79 28.78 18.163 40.96 4.258 91.19-33.522 117.652L695.027 847.872l-4.851 2.317a95.394 95.394 0 0 1-38.05 7.546c-27.378 0-54.972-10.618-73.512-29.912-17.678-18.27-49.368-39.45-63.92-39.45-14.605 0-46.564 21.665-64.134 40.205a102.4 102.4 0 0 1-111.885 23.067L215.04 783.899l-4.85-3.126a96.687 96.687 0 0 1-32.66-116.736c2.317-5.282 7.006-19.348 7.006-29.05 0-42.953-34.87-77.931-80.627-77.931h-1.94c-39.182 0-71.249-30.612-79.98-77.608-2.425-13.205-10.186-59.177-10.186-97.334 0-38.266 7.76-84.076 10.294-98.143 8.73-46.026 40.96-76.907 80.141-76.907h4.743c42.685 0 77.608-34.978 77.608-77.824 0-9.324-4.419-23.013-6.952-28.78-18-40.96-4.204-91.082 32.822-117.221l116.682-65.806 4.743-2.317c11.857-5.336 24.953-7.761 38.103-7.761 27.864 0 56.05 11.264 74.483 31.474 17.246 18.756 50.823 42.038 65.213 42.038 15.036 0 47.696-23.174 65.643-42.9 18.486-20.48 45.487-32.337 74.321-32.337 13.528 0 26.409 2.587 38.373 7.761l121.425 66.991 4.85 3.126c36.649 25.654 50.554 75.776 32.553 116.575-2.156 5.335-6.899 19.402-6.899 29.049 0 42.954 34.87 77.824 80.843 77.824 39.45 0.539 72.757 30.18 81.704 77.608 2.425 13.204 10.186 59.177 10.186 97.334 0.216 38.373-7.653 84.507-10.078 98.412zM932.27 297.768c-1.67-9.162-6.467-19.024-12.342-19.024-84.453 0-151.282-65.59-151.282-149.397 0-24.791 9.54-49.583 12.45-56.59 4.85-10.94 0.97-24.467-7.6-30.396l-0.27-0.161-115.603-63.758a25.492 25.492 0 0 0-7.761-1.078 28.672 28.672 0 0 0-21.02 8.57c-6.574 7.114-62.355 66.452-118.783 66.452-57.398 0-117.275-64.405-117.922-64.997a31.259 31.259 0 0 0-30.504-7.007l-1.186 0.54-110.484 62.355a25.708 25.708 0 0 0-6.845 28.35c2.587 6.035 12.935 31.959 12.935 57.72A149.504 149.504 0 0 1 106.98 278.744h-4.743c-1.67 0.377-7.383 5.82-9.916 18.647-2.048 11.264-8.947 52.925-8.947 84.884 0 25.385 4.581 60.255 8.947 84.615 2.263 12.18 7.599 18 9.323 18.863h2.264C189.171 485.915 256 551.56 256 635.311c0 25.762-10.456 51.793-12.611 56.751a25.87 25.87 0 0 0 7.006 29.804l1.24 0.7 117.167 64.297a31.636 31.636 0 0 0 29.642-7.276c2.425-2.533 59.93-62.464 116.09-62.464 55.457 0 112.855 58.746 115.226 61.279a32.768 32.768 0 0 0 22.097 8.246c3.234 0 6.252-0.54 8.677-1.456l0.97-0.539 112.424-62.733c8.085-7.168 11.48-19.51 7.384-28.834-2.587-5.928-12.935-31.69-12.935-57.72A149.288 149.288 0 0 1 917.45 485.968c10.24 0 13.474-13.043 14.552-18.648 4.311-23.821 9.054-59.068 9.054-84.83 0.27-26.139-4.581-61.871-8.839-84.615zM512.377 573.17a190.787 190.787 0 1 1-0.108-381.466 190.787 190.787 0 0 1 0.108 381.52z m0-309.894c-65.751 0-119.269 53.41-119.269 119.107a119.161 119.161 0 1 0 238.377 0c0-65.59-53.356-119.107-119.108-119.107z"  horiz-adv-x="1024" />

    
    <glyph glyph-name="faxian" unicode="&#58896;" d="M541.184 798.55c-244.736 0-443.733-198.998-443.733-443.734s198.997-443.733 443.733-443.733S984.917 110.08 984.917 354.816 785.92 798.549 541.184 798.549z m0-819.2c-207.019 0-375.467 168.447-375.467 375.466s168.448 375.467 375.467 375.467 375.467-168.448 375.467-375.467-168.448-375.467-375.467-375.467zM689.835 530.603c-3.584 0-7.339-0.683-11.094-2.39l-186.88-82.944a81.869 81.869 0 0 1-41.13-41.13l-82.944-186.88c-8.363-18.774 6.314-38.059 24.576-38.059 3.584 0 7.338 0.683 11.093 2.39l186.88 82.943a81.869 81.869 0 0 1 41.13 41.131l82.945 186.88c8.362 18.773-6.315 38.059-24.576 38.059zM569.173 333.312a13.312 13.312 0 0 0-6.485-6.485l-88.917-39.424 39.424 88.917c1.365 2.901 3.584 5.12 6.485 6.485l88.917 39.424-39.424-88.917z"  horiz-adv-x="1024" />

    
    <glyph glyph-name="shouye" unicode="&#58881;" d="M759.7-59.8H586.9c-18.1 0-32.1 13.9-32.1 32.1v276h-99v-276c0-18.1-13.9-32.1-32.1-32.1h-170c-53 0-96.2 43.2-96.2 96.2V317.9h-18.1c-41.8 0-75.3 33.5-75.3 75.3 0 19.5 7 37.6 20.9 51.6L409.7 789c53 55.7 140.8 58.5 197.9 5.6 1.4-2.8 2.8-4.2 5.6-5.6l324.7-344.2c29.3-29.3 27.9-76.7-1.4-105.9-13.9-13.9-33.4-20.9-53-20.9h-27.9v-281.5c0.2-53.1-43-96.3-95.9-96.3z m-139.4 64.1h139.4c18.1 0 33.4 15.3 33.4 33.4V349.9c0 18.1 13.9 32.1 32.1 32.1h59.9c4.2 0 8.4 2.8 9.8 7 1.4 4.2 1.4 8.4-2.8 12.5L565.9 744.3c-29.3 30.7-76.7 32.1-107.3 2.8-1.4 0-2.8-1.4-2.8-2.8L131.1 401.5c-4.2-4.2-4.2-11.1 0-15.3 2.8-2.8 5.6-2.8 8.4-2.8H191c18.1 0 32.1-13.9 32.1-32.1v-313.6c0-18.1 15.3-33.4 33.4-33.4h138V248.2c0 36.2 29.3 64.1 64.1 64.1h99c36.2 0 64.1-29.3 64.1-64.1l-1.4-243.9z"  horiz-adv-x="1024" />

    
    <glyph glyph-name="qiandai" unicode="&#59207;" d="M531.174268 673.784569C847.935454 673.784569 950.597667 238.493863 950.597667 47.793684S751.70791-127.697278 509.38414-127.697278 73.142857-143.19898 73.142857 47.793684s62.81114 625.990886 458.031411 625.990885zM302.743532 261.892657a34.074495 34.074495 0 0 1 34.513223-33.416404H475.309645v-60.105654H337.54924a33.416404 33.416404 0 1 1 0-66.832808H475.309645v-52.793531a34.513223 34.513223 0 0 1 69.026445 0v52.793531h142.440164a33.416404 33.416404 0 1 1 0 66.832808H544.043605v60.105654h142.440164a33.416404 33.416404 0 1 1 0 66.832808h-122.112461l0.804334 0.658092 113.703519 96.739392a32.904555 32.904555 0 0 1 3.144213 47.163196 35.53692 35.53692 0 0 1-48.698742 3.071092L519.621113 346.055198a33.635768 33.635768 0 0 1-4.826002-5.045365l-3.729183 0.438727a32.758313 32.758313 0 0 1-6.215304 7.312124L391.147104 445.646319a35.317556 35.317556 0 0 1-48.698741-3.071092 32.685192 32.685192 0 0 1 3.144213-47.163196l113.703519-96.885635a25.226826 25.226826 0 0 1 3.875425-2.778607H337.329876a34.074495 34.074495 0 0 1-34.513222-33.855132zM290.75165 858.196322c0-66.394081 99.371757-157.430017 222.069188-157.430017S734.890026 791.802241 734.890026 858.196322 633.178389 883.203784 510.627201 883.203784 290.75165 924.663524 290.75165 858.196322z"  horiz-adv-x="1024" />

    
    <glyph glyph-name="lihe2-copy" unicode="&#58746;" d="M921.01 662.35H153.33c-22.09 0-40-17.91-40-40v-96.52c0-22.09 17.91-40 40-40h25.29v-478.45c0-22.09 17.91-40 40-40h637.1c22.09 0 40 17.91 40 40V485.83h25.29c22.09 0 40 17.91 40 40v96.52c0 22.1-17.91 40-40 40z m-129.56-601.9c-13.56-19.16-34.96-18.76-40.77-12.37h-0.02c-5.88-3.39-12.64-5.62-19.99-5.14-6.59 0.43-12.56 2.64-17.8 5.66h-0.02s-25.15-10.99-41.6 14.95c-11.23 28.26 2.71 38.52 2.71 38.52s-8.52 25.74 31.94 41.03c0 0 23.42 25.35 54.39 0 0 0 36.19-15.87 30.58-41.42-0.01-0.01 14.14-22.07 0.58-41.23zM953.4464 736.10808889h-409.6l123.86986666 89.97546667c4.06186667 2.95822222 4.97208889 8.64711111 2.01386667 12.70897778a9.08856889 9.08856889 0 0 1-12.70897778 2.01386666l-141.15271111-102.53653333-139.37777778 102.58204445a9.10563555 9.10563555 0 1 1-10.79751111-14.66595556l122.41351111-90.10062222H80.00853333c-30.11697778 0-54.61333333-24.49635555-54.61333333-54.61333334v-109.81831111c0-30.11697778 24.49635555-54.61333333 54.61333333-54.61333333h19.67217778v-535.26755556c0-30.11697778 24.49635555-54.61333333 54.61333333-54.61333333h724.87822222c30.11697778 0 54.61333333 24.49635555 54.61333334 54.61333333V517.05173334h19.67217778c30.11697778 0 54.61333333 24.49635555 54.61333333 54.61333333v109.81831111c-0.01137778 30.11697778-24.50773333 54.62471111-54.62471111 54.62471111z m-573.28071112-18.20444444h273.13493334V535.26755556H380.16568888V717.90364445zM99.68071111 535.2561777799999h-19.67217778c-20.08177778 0-36.40888889 16.32711111-36.40888889 36.40888889v109.81831111c0 20.08177778 16.32711111 36.40888889 36.40888889 36.40888889h281.95271111v-182.63608889H99.68071111z m294.78684444-589.88088889H154.29404444c-20.08177778 0-36.40888889 16.33848889-36.40888889 36.40888889V517.05173334h276.5824v-571.67644445z m226.32675556 0H412.672V517.05173334h208.12231111v-571.67644445z m294.77546667 36.40888889c0-20.0704-16.33848889-36.40888889-36.4088889-36.40888889H638.99875555V517.05173334h276.5824v-535.26755556z m74.2855111 589.88088889c0-20.08177778-16.33848889-36.40888889-36.40888888-36.40888889H671.49368888V717.90364445h281.95271112c20.0704 0 36.40888889-16.32711111 36.40888888-36.40888889v-109.82968889zM784.83 116.67999999999995c3.83 26.65-28.08 42.85-33.69 45.48-30.65 24.57-55.37 5.05-60.85 0.03-12.54-4.92-28.09-13.93-33.52-29.43-2.16-6.16-2.08-11.49-1.64-14.88-4.43-5.42-11.3-18.66-1.79-42.62 0.14-0.35 0.31-0.68 0.51-1 13.92-21.95 34.85-21.93 46.2-18.3 5.33-2.71 11.32-4.65 17.89-5.08 0.81-0.05 1.62-0.08 2.42-0.08 6.32 0 12.16 1.64 17.43 4.15 3.35-1.87 7.67-2.89 12.42-2.89 0.68 0 1.37 0.02 2.07 0.06 12.25 0.75 23.81 7.6 31.73 18.79 13.25 18.7 4.36 39.16 0.82 45.77z m-66.09-53.83c-13.55 0.89-24.44 10.84-30.73 18.22 9.56-0.3 14.49-4.39 14.71-4.57a5.984 5.984 0 0 1 6.3-1.09c2.13 0.88 3.58 2.9 3.71 5.2 0.56 9.66 3.83 16.71 6.63 21.07 6.39-10.1 6.73-20.52 6.73-20.62a6.018 6.018 0 0 1 3.16-5.19c1.92-1.03 4.24-0.94 6.08 0.24 4.87 3.13 10.53 4.07 15.22 4.19-3.7-4.33-8.94-9.5-15.17-13.09-0.04-0.03-0.09-0.05-0.13-0.08-4.97-2.85-10.55-4.67-16.51-4.28z m55.49 14.99c-8.25-11.66-18.6-13.49-22.67-13.74h-0.14c9.35 8.2 14.97 17.3 15.4 18.01a5.98 5.98 0 0 1 0.42 5.38 5.998 5.998 0 0 1-4.07 3.54c-0.65 0.17-13.43 3.33-26.3-1-1.54 6.91-5.04 16.76-13.01 25.39a6.009 6.009 0 0 1-8.43 0.38c-0.47-0.42-9.91-9.12-13.46-25.42-5.93 2.27-14.78 3.95-26.31 1.48-1.89-0.4-3.46-1.69-4.24-3.46-0.77-1.77-0.65-3.8 0.33-5.46 0.38-0.64 5.28-8.77 13.82-16.69-6.59 0.59-14.65 3.8-21.29 13.98-8.55 22 0.07 30.21 0.95 30.97 2.21 1.5 2.93 4.13 2.09 6.68-0.07 0.2-6.31 20.43 28.36 33.54a6.22 6.22 0 0 1 2.27 1.52c0.05 0.05 5.23 5.48 13.49 8.04 10.7 3.32 21.71 0.43 32.71-8.58 0.42-0.34 0.89-0.63 1.38-0.85 0.32-0.14 31.62-14.23 27.14-34.64-0.34-1.54-0.04-3.17 0.8-4.51 0.03-0.05 3.14-5.02 4.68-11.91 1.93-8.64 0.61-16.25-3.92-22.65z"  horiz-adv-x="1024" />

    


  </font>
</defs>
</svg>
